<svg width="1440" height="1024" viewBox="0 0 1440 1024" fill="none" xmlns="http://www.w3.org/2000/svg" class="background">
<style type="text/css">
        .background{
            display: block;
            float: left;
        }
    </style>
<rect width="1440" height="1024" fill="#1E1E1E"/>
<g clip-path="url(#clip0_0_1)">
<rect width="1440" height="1024" fill="#A8DADC"/>
<g clip-path="url(#clip1_0_1)">
<mask id="mask0_0_1" style="mask-type:alpha" maskUnits="userSpaceOnUse" x="134" y="375" width="300" height="319">
<path d="M434 375H134V694H434V375Z" fill="#C4C4C4"/>
</mask>
<g mask="url(#mask0_0_1)">
<path d="M425.176 384.667H142.824V694H425.176V384.667Z" fill="#A8DADC"/>
<path d="M204.588 457.167H363.412V602.167H204.588V457.167Z" fill="#F1FAEE"/>
<path fill-rule="evenodd" clip-rule="evenodd" d="M200.177 457.167C200.177 454.497 202.152 452.333 204.588 452.333H363.412C365.848 452.333 367.824 454.497 367.824 457.167V602.167C367.824 604.836 365.848 607 363.412 607H204.588C202.152 607 200.177 604.836 200.177 602.167V457.167ZM209 462V597.333H359V462H209Z" fill="#1D3557"/>
<path d="M195.765 437.833H372.235V457.167H195.765V437.833Z" fill="#457B9D"/>
<path fill-rule="evenodd" clip-rule="evenodd" d="M191.353 437.833C191.353 435.164 193.328 433 195.765 433H372.235C374.672 433 376.647 435.164 376.647 437.833V457.167C376.647 459.836 374.672 462 372.235 462H195.765C193.328 462 191.353 459.836 191.353 457.167V437.833ZM200.176 442.667V452.333H367.824V442.667H200.176Z" fill="#1D3557"/>
<path d="M222.235 476.5H248.706V505.5H222.235V476.5Z" fill="#F1FAEE"/>
<path fill-rule="evenodd" clip-rule="evenodd" d="M217.824 476.5C217.824 473.831 219.799 471.667 222.235 471.667H248.706C251.143 471.667 253.118 473.831 253.118 476.5V505.5C253.118 508.169 251.143 510.333 248.706 510.333H222.235C219.799 510.333 217.824 508.169 217.824 505.5V476.5ZM226.647 481.333V500.667H244.294V481.333H226.647Z" fill="#1D3557"/>
<path d="M217.824 505.5H253.118V520H217.824V505.5Z" fill="#457B9D"/>
<path fill-rule="evenodd" clip-rule="evenodd" d="M213.412 505.5C213.412 502.831 215.387 500.667 217.824 500.667H253.118C255.554 500.667 257.529 502.831 257.529 505.5V520C257.529 522.669 255.554 524.833 253.118 524.833H217.824C215.387 524.833 213.412 522.669 213.412 520V505.5ZM222.235 510.333V515.167H248.706V510.333H222.235Z" fill="#1D3557"/>
<path d="M222.235 539.333H248.706V568.333H222.235V539.333Z" fill="#F1FAEE"/>
<path fill-rule="evenodd" clip-rule="evenodd" d="M217.824 539.333C217.824 536.664 219.799 534.5 222.235 534.5H248.706C251.143 534.5 253.118 536.664 253.118 539.333V568.333C253.118 571.003 251.143 573.167 248.706 573.167H222.235C219.799 573.167 217.824 571.003 217.824 568.333V539.333ZM226.647 544.167V563.5H244.294V544.167H226.647Z" fill="#1D3557"/>
<path d="M217.824 568.333H253.118V582.833H217.824V568.333Z" fill="#457B9D"/>
<path fill-rule="evenodd" clip-rule="evenodd" d="M213.412 568.333C213.412 565.664 215.387 563.5 217.824 563.5H253.118C255.554 563.5 257.529 565.664 257.529 568.333V582.833C257.529 585.503 255.554 587.667 253.118 587.667H217.824C215.387 587.667 213.412 585.503 213.412 582.833V568.333ZM222.235 573.167V578H248.706V573.167H222.235Z" fill="#1D3557"/>
<path d="M270.765 476.5H297.235V505.5H270.765V476.5Z" fill="#F1FAEE"/>
<path fill-rule="evenodd" clip-rule="evenodd" d="M266.353 476.5C266.353 473.831 268.328 471.667 270.765 471.667H297.235C299.672 471.667 301.647 473.831 301.647 476.5V505.5C301.647 508.169 299.672 510.333 297.235 510.333H270.765C268.328 510.333 266.353 508.169 266.353 505.5V476.5ZM275.176 481.333V500.667H292.824V481.333H275.176Z" fill="#1D3557"/>
<path d="M266.353 505.5H301.647V520H266.353V505.5Z" fill="#457B9D"/>
<path fill-rule="evenodd" clip-rule="evenodd" d="M261.941 505.5C261.941 502.831 263.916 500.667 266.353 500.667H301.647C304.084 500.667 306.059 502.831 306.059 505.5V520C306.059 522.669 304.084 524.833 301.647 524.833H266.353C263.916 524.833 261.941 522.669 261.941 520V505.5ZM270.765 510.333V515.167H297.235V510.333H270.765Z" fill="#1D3557"/>
<path d="M270.765 539.333H297.235V568.333H270.765V539.333Z" fill="#F1FAEE"/>
<path fill-rule="evenodd" clip-rule="evenodd" d="M266.353 539.333C266.353 536.664 268.328 534.5 270.765 534.5H297.235C299.672 534.5 301.647 536.664 301.647 539.333V568.333C301.647 571.003 299.672 573.167 297.235 573.167H270.765C268.328 573.167 266.353 571.003 266.353 568.333V539.333ZM275.176 544.167V563.5H292.824V544.167H275.176Z" fill="#1D3557"/>
<path d="M266.353 568.333H301.647V582.833H266.353V568.333Z" fill="#457B9D"/>
<path fill-rule="evenodd" clip-rule="evenodd" d="M261.941 568.333C261.941 565.664 263.916 563.5 266.353 563.5H301.647C304.084 563.5 306.059 565.664 306.059 568.333V582.833C306.059 585.503 304.084 587.667 301.647 587.667H266.353C263.916 587.667 261.941 585.503 261.941 582.833V568.333ZM270.765 573.167V578H297.235V573.167H270.765Z" fill="#1D3557"/>
<path d="M319.294 476.5H345.765V505.5H319.294V476.5Z" fill="#F1FAEE"/>
<path fill-rule="evenodd" clip-rule="evenodd" d="M314.882 476.5C314.882 473.831 316.858 471.667 319.294 471.667H345.765C348.201 471.667 350.177 473.831 350.177 476.5V505.5C350.177 508.169 348.201 510.333 345.765 510.333H319.294C316.858 510.333 314.882 508.169 314.882 505.5V476.5ZM323.706 481.333V500.667H341.353V481.333H323.706Z" fill="#1D3557"/>
<path d="M314.882 505.5H350.177V520H314.882V505.5Z" fill="#457B9D"/>
<path fill-rule="evenodd" clip-rule="evenodd" d="M310.471 505.5C310.471 502.831 312.446 500.667 314.882 500.667H350.176C352.613 500.667 354.588 502.831 354.588 505.5V520C354.588 522.669 352.613 524.833 350.176 524.833H314.882C312.446 524.833 310.471 522.669 310.471 520V505.5ZM319.294 510.333V515.167H345.765V510.333H319.294Z" fill="#1D3557"/>
<path d="M319.294 539.333H345.765V568.333H319.294V539.333Z" fill="#F1FAEE"/>
<path fill-rule="evenodd" clip-rule="evenodd" d="M314.882 539.333C314.882 536.664 316.858 534.5 319.294 534.5H345.765C348.201 534.5 350.177 536.664 350.177 539.333V568.333C350.177 571.003 348.201 573.167 345.765 573.167H319.294C316.858 573.167 314.882 571.003 314.882 568.333V539.333ZM323.706 544.167V563.5H341.353V544.167H323.706Z" fill="#1D3557"/>
<path d="M314.882 568.333H350.177V582.833H314.882V568.333Z" fill="#457B9D"/>
<path fill-rule="evenodd" clip-rule="evenodd" d="M310.471 568.333C310.471 565.664 312.446 563.5 314.882 563.5H350.176C352.613 563.5 354.588 565.664 354.588 568.333V582.833C354.588 585.503 352.613 587.667 350.176 587.667H314.882C312.446 587.667 310.471 585.503 310.471 582.833V568.333ZM319.294 573.167V578H345.765V573.167H319.294Z" fill="#1D3557"/>
<path d="M200.176 602.167H367.824V621.5H200.176V602.167Z" fill="#457B9D"/>
<path fill-rule="evenodd" clip-rule="evenodd" d="M195.765 602.167C195.765 599.497 197.74 597.333 200.176 597.333H367.824C370.26 597.333 372.235 599.497 372.235 602.167V621.5C372.235 624.169 370.26 626.333 367.824 626.333H200.176C197.74 626.333 195.765 624.169 195.765 621.5V602.167ZM204.588 607V616.667H363.412V607H204.588Z" fill="#1D3557"/>
<path d="M204.588 621.5H363.412V689.167H204.588V621.5Z" fill="#F1FAEE"/>
<path fill-rule="evenodd" clip-rule="evenodd" d="M200.176 621.5C200.176 618.831 202.152 616.667 204.588 616.667H363.412C365.848 616.667 367.824 618.831 367.824 621.5V689.167C367.824 691.836 365.848 694 363.412 694H204.588C202.152 694 200.176 691.836 200.176 689.167V621.5ZM209 626.333V684.333H359V626.333H209Z" fill="#1D3557"/>
<path d="M222.235 640.833H239.882V669.833H222.235V640.833Z" fill="#F1FAEE"/>
<path fill-rule="evenodd" clip-rule="evenodd" d="M217.824 640.833C217.824 638.164 219.799 636 222.235 636H239.882C242.319 636 244.294 638.164 244.294 640.833V669.833C244.294 672.503 242.319 674.667 239.882 674.667H222.235C219.799 674.667 217.824 672.503 217.824 669.833V640.833ZM226.647 645.667V665H235.471V645.667H226.647Z" fill="#1D3557"/>
<path d="M328.118 640.833H345.765V669.833H328.118V640.833Z" fill="#F1FAEE"/>
<path fill-rule="evenodd" clip-rule="evenodd" d="M323.706 640.833C323.706 638.164 325.681 636 328.118 636H345.765C348.201 636 350.176 638.164 350.176 640.833V669.833C350.176 672.503 348.201 674.667 345.765 674.667H328.118C325.681 674.667 323.706 672.503 323.706 669.833V640.833ZM332.529 645.667V665H341.353V645.667H332.529Z" fill="#1D3557"/>
<path d="M257.529 640.833H284V689.167H257.529V640.833Z" fill="#F1FAEE"/>
<path fill-rule="evenodd" clip-rule="evenodd" d="M253.118 640.833C253.118 638.164 255.093 636 257.529 636H284C286.437 636 288.412 638.164 288.412 640.833V689.167C288.412 691.836 286.437 694 284 694H257.529C255.093 694 253.118 691.836 253.118 689.167V640.833ZM261.941 645.667V684.333H279.588V645.667H261.941Z" fill="#1D3557"/>
<path d="M284 640.833H310.471V689.167H284V640.833Z" fill="#F1FAEE"/>
<path fill-rule="evenodd" clip-rule="evenodd" d="M279.588 640.833C279.588 638.164 281.563 636 284 636H310.471C312.907 636 314.882 638.164 314.882 640.833V689.167C314.882 691.836 312.907 694 310.471 694H284C281.563 694 279.588 691.836 279.588 689.167V640.833ZM288.412 645.667V684.333H306.059V645.667H288.412Z" fill="#1D3557"/>
<path d="M381.059 578C381.059 567.323 388.96 558.667 398.706 558.667C408.452 558.667 416.353 567.323 416.353 578V636C416.353 646.677 408.452 655.333 398.706 655.333C388.96 655.333 381.059 646.677 381.059 636V578Z" fill="#457B9D"/>
<path fill-rule="evenodd" clip-rule="evenodd" d="M376.647 578C376.647 564.653 386.523 553.833 398.706 553.833C410.889 553.833 420.765 564.653 420.765 578V636C420.765 649.347 410.889 660.167 398.706 660.167C386.523 660.167 376.647 649.347 376.647 636V578ZM398.706 563.5C391.396 563.5 385.471 569.992 385.471 578V636C385.471 644.008 391.396 650.5 398.706 650.5C406.016 650.5 411.941 644.008 411.941 636V578C411.941 569.992 406.016 563.5 398.706 563.5Z" fill="#1D3557"/>
<path fill-rule="evenodd" clip-rule="evenodd" d="M398.706 607C401.143 607 403.118 609.164 403.118 611.833V684.333C403.118 687.003 401.143 689.167 398.706 689.167C396.269 689.167 394.294 687.003 394.294 684.333V611.833C394.294 609.164 396.269 607 398.706 607Z" fill="#1D3557"/>
<path d="M151.647 607C151.647 596.323 159.548 587.667 169.294 587.667C179.04 587.667 186.941 596.323 186.941 607V636C186.941 646.677 179.04 655.333 169.294 655.333C159.548 655.333 151.647 646.677 151.647 636V607Z" fill="#457B9D"/>
<path fill-rule="evenodd" clip-rule="evenodd" d="M147.235 607C147.235 593.653 157.111 582.833 169.294 582.833C181.477 582.833 191.353 593.653 191.353 607V636C191.353 649.347 181.477 660.167 169.294 660.167C157.111 660.167 147.235 649.347 147.235 636V607ZM169.294 592.5C161.984 592.5 156.059 598.992 156.059 607V636C156.059 644.008 161.984 650.5 169.294 650.5C176.604 650.5 182.529 644.008 182.529 636V607C182.529 598.992 176.604 592.5 169.294 592.5Z" fill="#1D3557"/>
<path fill-rule="evenodd" clip-rule="evenodd" d="M169.294 621.5C171.731 621.5 173.706 623.664 173.706 626.333V684.333C173.706 687.003 171.731 689.167 169.294 689.167C166.858 689.167 164.882 687.003 164.882 684.333V626.333C164.882 623.664 166.858 621.5 169.294 621.5Z" fill="#1D3557"/>
</g>
</g>
<path d="M1304.65 612.182C1304.65 602.14 1313.44 594 1324.29 594C1335.14 594 1343.94 602.14 1343.94 612.182V639.455C1343.94 649.496 1335.14 657.636 1324.29 657.636C1313.44 657.636 1304.65 649.496 1304.65 639.455V612.182Z" fill="#457B9D"/>
<path fill-rule="evenodd" clip-rule="evenodd" d="M1299.74 612.182C1299.74 599.63 1310.73 589.455 1324.29 589.455C1337.86 589.455 1348.85 599.63 1348.85 612.182V639.455C1348.85 652.006 1337.86 662.182 1324.29 662.182C1310.73 662.182 1299.74 652.006 1299.74 639.455V612.182ZM1324.29 598.545C1316.16 598.545 1309.56 604.65 1309.56 612.182V639.455C1309.56 646.986 1316.16 653.091 1324.29 653.091C1332.43 653.091 1339.03 646.986 1339.03 639.455V612.182C1339.03 604.65 1332.43 598.545 1324.29 598.545Z" fill="#1D3557"/>
<path fill-rule="evenodd" clip-rule="evenodd" d="M1324.29 625.818C1327.01 625.818 1329.21 627.853 1329.21 630.364V684.909C1329.21 687.42 1327.01 689.455 1324.29 689.455C1321.58 689.455 1319.38 687.42 1319.38 684.909V630.364C1319.38 627.853 1321.58 625.818 1324.29 625.818Z" fill="#1D3557"/>
<path d="M1033.92 583.085C1033.92 573.043 1042.72 564.903 1053.59 564.903C1064.45 564.903 1073.26 573.043 1073.26 583.085V637.63C1073.26 647.671 1064.45 655.812 1053.59 655.812C1042.72 655.812 1033.92 647.671 1033.92 637.63V583.085Z" fill="#457B9D"/>
<path fill-rule="evenodd" clip-rule="evenodd" d="M1029 583.085C1029 570.533 1040.01 560.357 1053.59 560.357C1067.17 560.357 1078.18 570.533 1078.18 583.085V637.63C1078.18 650.182 1067.17 660.357 1053.59 660.357C1040.01 660.357 1029 650.182 1029 637.63V583.085ZM1053.59 569.448C1045.44 569.448 1038.84 575.553 1038.84 583.085V637.63C1038.84 645.161 1045.44 651.266 1053.59 651.266C1061.74 651.266 1068.34 645.161 1068.34 637.63V583.085C1068.34 575.553 1061.74 569.448 1053.59 569.448Z" fill="#1D3557"/>
<path fill-rule="evenodd" clip-rule="evenodd" d="M1053.59 610.357C1056.3 610.357 1058.51 612.392 1058.51 614.903V683.085C1058.51 685.595 1056.3 687.63 1053.59 687.63C1050.87 687.63 1048.67 685.595 1048.67 683.085V614.903C1048.67 612.392 1050.87 610.357 1053.59 610.357Z" fill="#1D3557"/>
<line x1="-0.0277778" y1="703" x2="1439.97" y2="701" stroke="#1D3557" stroke-width="40"/>
<path d="M1168.8 474.171H1130.37V539.996H1168.8V474.171Z" fill="white" stroke="#1D3557" stroke-width="12.5"/>
<path d="M1284.76 566.188H1116.06V688.633H1284.76V566.188Z" fill="white" stroke="#1D3557" stroke-width="12.5"/>
<path d="M1260.43 593.255H1205.28V687.474H1260.43V593.255Z" fill="#457B9D" stroke="#1D3557" stroke-width="12.5"/>
<path d="M1181.76 604.056H1137.96V649.343H1181.76V604.056Z" fill="white" stroke="#1D3557" stroke-width="12.5"/>
<path d="M1160.47 605.232V646.741" stroke="#1D3557" stroke-width="12.5"/>
<path d="M1180.54 625.984H1140.4" stroke="#1D3557" stroke-width="12.5"/>
<path fill-rule="evenodd" clip-rule="evenodd" d="M1098.26 574.368H1303L1199.4 470L1098.26 574.368Z" fill="#457B9D" stroke="#1D3557" stroke-width="12.5"/>
</g>
<defs>
<clipPath id="clip0_0_1">
<rect width="1440" height="1024" fill="white"/>
</clipPath>
<clipPath id="clip1_0_1">
<rect width="300" height="319" fill="white" transform="translate(134 375)"/>
</clipPath>
</defs>
</svg>
