<svg width="1440" height="2099" viewBox="0 0 1440 2099" fill="none" xmlns="http://www.w3.org/2000/svg">
<g clip-path="url(#clip0_30_2)">
<rect width="1440" height="2099" fill="#A8DADC"/>
<path d="M202.143 149.135C184.358 151.438 169.543 150.34 171.161 186.421L173.955 856.83L1288.84 879.737L1287.31 196.241C1289.65 166.982 1282.62 152.178 1253.17 152.414L202.143 149.135Z" fill="#666666" stroke="#333333" stroke-width="2" stroke-linecap="round" stroke-linejoin="round"/>
<path d="M-51.4937 1211.23L-50.4865 1264.74C-52.5709 1292.7 -38.0844 1301.25 -21.7875 1304.84L1455.7 1302.31C1474.66 1302.28 1492.36 1286.89 1490.29 1258.8L1489.79 1205.83L-51.4937 1211.23Z" fill="#666666" stroke="#333333" stroke-width="2" stroke-linecap="round" stroke-linejoin="round"/>
<path d="M175.143 843.464L-49.1648 1205.52C-52.6063 1216.29 -48.7557 1227.22 -31.8696 1227.03L1461.57 1226C1487.01 1227.49 1496.25 1215.05 1484.45 1195.88L1289.64 843.794L175.143 843.464Z" fill="#666666" stroke="#333333" stroke-width="2" stroke-linecap="round" stroke-linejoin="round"/>
<path d="M247.114 888.57C233.592 887.703 225.873 902.244 220.05 912.258L142.863 1052.77C131.929 1070.64 149.285 1074.34 163.149 1074.58L1296.15 1074.34C1312.63 1074.68 1319.93 1061.26 1309.55 1046.78L1237.21 907.241C1232.71 899.186 1226.56 891.398 1215.84 891.49L247.114 888.57Z" fill="#333333" stroke="#333333" stroke-linecap="round" stroke-linejoin="round"/>
<path d="M594.187 1105.68L557.649 1180.34C552.023 1191.23 557.388 1200.68 568.905 1200.1L869.802 1199.33C879.197 1200.35 887.754 1187.7 882.965 1177.48L850.879 1106.86C847.685 1098.56 842.185 1095.78 836.16 1095.98L611.997 1098.03C600.6 1097.53 597.889 1101.24 594.187 1105.68Z" fill="#333333" stroke="#333333" stroke-linecap="round" stroke-linejoin="round"/>
<path d="M237.667 210.925L238.435 791.241H1216.38L1218.81 210.728L237.667 210.925Z" fill="white" stroke="#A8DADC" stroke-width="1.02044" stroke-linecap="round" stroke-linejoin="round"/>
<path d="M759.123 183.208C759.123 193.036 750.015 201.004 738.78 201.004C727.545 201.004 718.438 193.036 718.438 183.208C718.438 173.379 727.545 165.412 738.78 165.412C750.015 165.412 759.123 173.379 759.123 183.208Z" fill="#333333" stroke="#333333" stroke-width="0.719948" stroke-linecap="round" stroke-linejoin="round"/>
<g clip-path="url(#clip1_30_2)">
<mask id="mask0_30_2" style="mask-type:alpha" maskUnits="userSpaceOnUse" x="398" y="367" width="229" height="243">
<path d="M627 367H398V610H627V367Z" fill="#C4C4C4"/>
</mask>
<g mask="url(#mask0_30_2)">
<path d="M620.265 374.364H404.735V610H620.265V374.364Z" fill="white"/>
<path d="M451.882 429.591H573.118V540.045H451.882V429.591Z" fill="#F1FAEE"/>
<path fill-rule="evenodd" clip-rule="evenodd" d="M448.515 429.591C448.515 427.557 450.022 425.909 451.882 425.909H573.118C574.978 425.909 576.485 427.557 576.485 429.591V540.045C576.485 542.079 574.978 543.727 573.118 543.727H451.882C450.022 543.727 448.515 542.079 448.515 540.045V429.591ZM455.25 433.273V536.364H569.75V433.273H455.25Z" fill="#1D3557"/>
<path d="M445.147 414.864H579.853V429.591H445.147V414.864Z" fill="#457B9D"/>
<path fill-rule="evenodd" clip-rule="evenodd" d="M441.779 414.864C441.779 412.83 443.287 411.182 445.147 411.182H579.853C581.713 411.182 583.22 412.83 583.22 414.864V429.591C583.22 431.624 581.713 433.273 579.853 433.273H445.147C443.287 433.273 441.779 431.624 441.779 429.591V414.864ZM448.515 418.545V425.909H576.485V418.545H448.515Z" fill="#1D3557"/>
<path d="M465.353 444.318H485.559V466.409H465.353V444.318Z" fill="#F1FAEE"/>
<path fill-rule="evenodd" clip-rule="evenodd" d="M461.985 444.318C461.985 442.285 463.493 440.636 465.353 440.636H485.559C487.419 440.636 488.927 442.285 488.927 444.318V466.409C488.927 468.443 487.419 470.091 485.559 470.091H465.353C463.493 470.091 461.985 468.443 461.985 466.409V444.318ZM468.721 448V462.727H482.191V448H468.721Z" fill="#1D3557"/>
<path d="M461.985 466.409H488.927V477.455H461.985V466.409Z" fill="#457B9D"/>
<path fill-rule="evenodd" clip-rule="evenodd" d="M458.618 466.409C458.618 464.376 460.125 462.727 461.985 462.727H488.927C490.786 462.727 492.294 464.376 492.294 466.409V477.455C492.294 479.488 490.786 481.136 488.927 481.136H461.985C460.125 481.136 458.618 479.488 458.618 477.455V466.409ZM465.353 470.091V473.773H485.559V470.091H465.353Z" fill="#1D3557"/>
<path d="M465.353 492.182H485.559V514.273H465.353V492.182Z" fill="#F1FAEE"/>
<path fill-rule="evenodd" clip-rule="evenodd" d="M461.985 492.182C461.985 490.148 463.493 488.5 465.353 488.5H485.559C487.419 488.5 488.927 490.148 488.927 492.182V514.273C488.927 516.306 487.419 517.955 485.559 517.955H465.353C463.493 517.955 461.985 516.306 461.985 514.273V492.182ZM468.721 495.864V510.591H482.191V495.864H468.721Z" fill="#1D3557"/>
<path d="M461.985 514.273H488.927V525.318H461.985V514.273Z" fill="#457B9D"/>
<path fill-rule="evenodd" clip-rule="evenodd" d="M458.618 514.273C458.618 512.239 460.125 510.591 461.985 510.591H488.927C490.786 510.591 492.294 512.239 492.294 514.273V525.318C492.294 527.352 490.786 529 488.927 529H461.985C460.125 529 458.618 527.352 458.618 525.318V514.273ZM465.353 517.955V521.636H485.559V517.955H465.353Z" fill="#1D3557"/>
<path d="M502.397 444.318H522.603V466.409H502.397V444.318Z" fill="#F1FAEE"/>
<path fill-rule="evenodd" clip-rule="evenodd" d="M499.029 444.318C499.029 442.285 500.537 440.636 502.397 440.636H522.603C524.463 440.636 525.97 442.285 525.97 444.318V466.409C525.97 468.443 524.463 470.091 522.603 470.091H502.397C500.537 470.091 499.029 468.443 499.029 466.409V444.318ZM505.765 448V462.727H519.235V448H505.765Z" fill="#1D3557"/>
<path d="M499.029 466.409H525.97V477.455H499.029V466.409Z" fill="#457B9D"/>
<path fill-rule="evenodd" clip-rule="evenodd" d="M495.662 466.409C495.662 464.376 497.169 462.727 499.029 462.727H525.97C527.83 462.727 529.338 464.376 529.338 466.409V477.455C529.338 479.488 527.83 481.136 525.97 481.136H499.029C497.169 481.136 495.662 479.488 495.662 477.455V466.409ZM502.397 470.091V473.773H522.603V470.091H502.397Z" fill="#1D3557"/>
<path d="M502.397 492.182H522.603V514.273H502.397V492.182Z" fill="#F1FAEE"/>
<path fill-rule="evenodd" clip-rule="evenodd" d="M499.029 492.182C499.029 490.148 500.537 488.5 502.397 488.5H522.603C524.463 488.5 525.97 490.148 525.97 492.182V514.273C525.97 516.306 524.463 517.955 522.603 517.955H502.397C500.537 517.955 499.029 516.306 499.029 514.273V492.182ZM505.765 495.864V510.591H519.235V495.864H505.765Z" fill="#1D3557"/>
<path d="M499.029 514.273H525.97V525.318H499.029V514.273Z" fill="#457B9D"/>
<path fill-rule="evenodd" clip-rule="evenodd" d="M495.662 514.273C495.662 512.239 497.169 510.591 499.029 510.591H525.97C527.83 510.591 529.338 512.239 529.338 514.273V525.318C529.338 527.352 527.83 529 525.97 529H499.029C497.169 529 495.662 527.352 495.662 525.318V514.273ZM502.397 517.955V521.636H522.603V517.955H502.397Z" fill="#1D3557"/>
<path d="M539.441 444.318H559.647V466.409H539.441V444.318Z" fill="#F1FAEE"/>
<path fill-rule="evenodd" clip-rule="evenodd" d="M536.074 444.318C536.074 442.285 537.581 440.636 539.441 440.636H559.647C561.507 440.636 563.015 442.285 563.015 444.318V466.409C563.015 468.443 561.507 470.091 559.647 470.091H539.441C537.581 470.091 536.074 468.443 536.074 466.409V444.318ZM542.809 448V462.727H556.28V448H542.809Z" fill="#1D3557"/>
<path d="M536.074 466.409H563.015V477.455H536.074V466.409Z" fill="#457B9D"/>
<path fill-rule="evenodd" clip-rule="evenodd" d="M532.706 466.409C532.706 464.376 534.214 462.727 536.074 462.727H563.015C564.875 462.727 566.383 464.376 566.383 466.409V477.455C566.383 479.488 564.875 481.136 563.015 481.136H536.074C534.214 481.136 532.706 479.488 532.706 477.455V466.409ZM539.441 470.091V473.773H559.647V470.091H539.441Z" fill="#1D3557"/>
<path d="M539.441 492.182H559.647V514.273H539.441V492.182Z" fill="#F1FAEE"/>
<path fill-rule="evenodd" clip-rule="evenodd" d="M536.074 492.182C536.074 490.148 537.581 488.5 539.441 488.5H559.647C561.507 488.5 563.015 490.148 563.015 492.182V514.273C563.015 516.306 561.507 517.955 559.647 517.955H539.441C537.581 517.955 536.074 516.306 536.074 514.273V492.182ZM542.809 495.864V510.591H556.28V495.864H542.809Z" fill="#1D3557"/>
<path d="M536.074 514.273H563.015V525.318H536.074V514.273Z" fill="#457B9D"/>
<path fill-rule="evenodd" clip-rule="evenodd" d="M532.706 514.273C532.706 512.239 534.214 510.591 536.074 510.591H563.015C564.875 510.591 566.383 512.239 566.383 514.273V525.318C566.383 527.352 564.875 529 563.015 529H536.074C534.214 529 532.706 527.352 532.706 525.318V514.273ZM539.441 517.955V521.636H559.647V517.955H539.441Z" fill="#1D3557"/>
<path d="M448.515 540.045H576.485V554.773H448.515V540.045Z" fill="#457B9D"/>
<path fill-rule="evenodd" clip-rule="evenodd" d="M445.147 540.045C445.147 538.012 446.655 536.364 448.515 536.364H576.485C578.345 536.364 579.853 538.012 579.853 540.045V554.773C579.853 556.806 578.345 558.455 576.485 558.455H448.515C446.655 558.455 445.147 556.806 445.147 554.773V540.045ZM451.882 543.727V551.091H573.118V543.727H451.882Z" fill="#1D3557"/>
<path d="M451.882 554.773H573.118V606.318H451.882V554.773Z" fill="#F1FAEE"/>
<path fill-rule="evenodd" clip-rule="evenodd" d="M448.515 554.773C448.515 552.739 450.022 551.091 451.882 551.091H573.118C574.978 551.091 576.485 552.739 576.485 554.773V606.318C576.485 608.352 574.978 610 573.118 610H451.882C450.022 610 448.515 608.352 448.515 606.318V554.773ZM455.25 558.455V602.636H569.75V558.455H455.25Z" fill="#1D3557"/>
<path d="M465.353 569.5H478.824V591.591H465.353V569.5Z" fill="#F1FAEE"/>
<path fill-rule="evenodd" clip-rule="evenodd" d="M461.985 569.5C461.985 567.467 463.493 565.818 465.353 565.818H478.824C480.684 565.818 482.191 567.467 482.191 569.5V591.591C482.191 593.624 480.684 595.273 478.824 595.273H465.353C463.493 595.273 461.985 593.624 461.985 591.591V569.5ZM468.721 573.182V587.909H475.456V573.182H468.721Z" fill="#1D3557"/>
<path d="M546.177 569.5H559.647V591.591H546.177V569.5Z" fill="#F1FAEE"/>
<path fill-rule="evenodd" clip-rule="evenodd" d="M542.809 569.5C542.809 567.467 544.317 565.818 546.177 565.818H559.647C561.507 565.818 563.015 567.467 563.015 569.5V591.591C563.015 593.624 561.507 595.273 559.647 595.273H546.177C544.317 595.273 542.809 593.624 542.809 591.591V569.5ZM549.544 573.182V587.909H556.28V573.182H549.544Z" fill="#1D3557"/>
<path d="M492.294 569.5H512.5V606.318H492.294V569.5Z" fill="#F1FAEE"/>
<path fill-rule="evenodd" clip-rule="evenodd" d="M488.927 569.5C488.927 567.467 490.434 565.818 492.294 565.818H512.5C514.36 565.818 515.868 567.467 515.868 569.5V606.318C515.868 608.352 514.36 610 512.5 610H492.294C490.434 610 488.927 608.352 488.927 606.318V569.5ZM495.662 573.182V602.636H509.133V573.182H495.662Z" fill="#1D3557"/>
<path d="M512.5 569.5H532.706V606.318H512.5V569.5Z" fill="#F1FAEE"/>
<path fill-rule="evenodd" clip-rule="evenodd" d="M509.132 569.5C509.132 567.467 510.64 565.818 512.5 565.818H532.706C534.566 565.818 536.073 567.467 536.073 569.5V606.318C536.073 608.352 534.566 610 532.706 610H512.5C510.64 610 509.132 608.352 509.132 606.318V569.5ZM515.868 573.182V602.636H529.338V573.182H515.868Z" fill="#1D3557"/>
<path d="M586.588 521.636C586.588 513.503 592.619 506.909 600.059 506.909C607.498 506.909 613.53 513.503 613.53 521.636V565.818C613.53 573.952 607.498 580.545 600.059 580.545C592.619 580.545 586.588 573.952 586.588 565.818V521.636Z" fill="#457B9D"/>
<path fill-rule="evenodd" clip-rule="evenodd" d="M583.221 521.636C583.221 511.469 590.76 503.227 600.059 503.227C609.358 503.227 616.897 511.469 616.897 521.636V565.818C616.897 575.985 609.358 584.227 600.059 584.227C590.76 584.227 583.221 575.985 583.221 565.818V521.636ZM600.059 510.591C594.479 510.591 589.956 515.536 589.956 521.636V565.818C589.956 571.919 594.479 576.864 600.059 576.864C605.639 576.864 610.162 571.919 610.162 565.818V521.636C610.162 515.536 605.639 510.591 600.059 510.591Z" fill="#1D3557"/>
<path fill-rule="evenodd" clip-rule="evenodd" d="M600.059 543.727C601.919 543.727 603.427 545.376 603.427 547.409V602.636C603.427 604.67 601.919 606.318 600.059 606.318C598.199 606.318 596.691 604.67 596.691 602.636V547.409C596.691 545.376 598.199 543.727 600.059 543.727Z" fill="#1D3557"/>
<path d="M411.471 543.727C411.471 535.594 417.502 529 424.941 529C432.381 529 438.412 535.594 438.412 543.727V565.818C438.412 573.952 432.381 580.545 424.941 580.545C417.502 580.545 411.471 573.952 411.471 565.818V543.727Z" fill="#457B9D"/>
<path fill-rule="evenodd" clip-rule="evenodd" d="M408.103 543.727C408.103 533.56 415.642 525.318 424.941 525.318C434.241 525.318 441.779 533.56 441.779 543.727V565.818C441.779 575.985 434.241 584.227 424.941 584.227C415.642 584.227 408.103 575.985 408.103 565.818V543.727ZM424.941 532.682C419.362 532.682 414.838 537.627 414.838 543.727V565.818C414.838 571.919 419.362 576.864 424.941 576.864C430.521 576.864 435.044 571.919 435.044 565.818V543.727C435.044 537.627 430.521 532.682 424.941 532.682Z" fill="#1D3557"/>
<path fill-rule="evenodd" clip-rule="evenodd" d="M424.941 554.773C426.801 554.773 428.309 556.421 428.309 558.455V602.636C428.309 604.67 426.801 606.318 424.941 606.318C423.081 606.318 421.574 604.67 421.574 602.636V558.455C421.574 556.421 423.081 554.773 424.941 554.773Z" fill="#1D3557"/>
</g>
</g>
<path d="M1052.41 552.545C1052.41 544.881 1057.97 538.667 1064.82 538.667C1071.68 538.667 1077.24 544.881 1077.24 552.545V573.364C1077.24 581.029 1071.68 587.242 1064.82 587.242C1057.97 587.242 1052.41 581.029 1052.41 573.364V552.545Z" fill="#457B9D"/>
<path fill-rule="evenodd" clip-rule="evenodd" d="M1049.31 552.545C1049.31 542.964 1056.25 535.197 1064.82 535.197C1073.39 535.197 1080.34 542.964 1080.34 552.545V573.364C1080.34 582.945 1073.39 590.712 1064.82 590.712C1056.25 590.712 1049.31 582.945 1049.31 573.364V552.545ZM1064.82 542.136C1059.68 542.136 1055.51 546.797 1055.51 552.545V573.364C1055.51 579.113 1059.68 583.773 1064.82 583.773C1069.96 583.773 1074.13 579.113 1074.13 573.364V552.545C1074.13 546.797 1069.96 542.136 1064.82 542.136Z" fill="#1D3557"/>
<path fill-rule="evenodd" clip-rule="evenodd" d="M1064.82 562.955C1066.54 562.955 1067.93 564.508 1067.93 566.424V608.061C1067.93 609.977 1066.54 611.53 1064.82 611.53C1063.11 611.53 1061.72 609.977 1061.72 608.061V566.424C1061.72 564.508 1063.11 562.955 1064.82 562.955Z" fill="#1D3557"/>
<path d="M825.164 531.129C825.164 523.561 830.83 517.426 837.82 517.426C844.81 517.426 850.476 523.561 850.476 531.129V572.239C850.476 579.807 844.81 585.942 837.82 585.942C830.83 585.942 825.164 579.807 825.164 572.239V531.129Z" fill="#457B9D"/>
<path fill-rule="evenodd" clip-rule="evenodd" d="M822 531.129C822 521.669 829.083 514 837.82 514C846.557 514 853.64 521.669 853.64 531.129V572.239C853.64 581.699 846.557 589.368 837.82 589.368C829.083 589.368 822 581.699 822 572.239V531.129ZM837.82 520.852C832.578 520.852 828.328 525.453 828.328 531.129V572.239C828.328 577.915 832.578 582.516 837.82 582.516C843.062 582.516 847.312 577.915 847.312 572.239V531.129C847.312 525.453 843.062 520.852 837.82 520.852Z" fill="#1D3557"/>
<path fill-rule="evenodd" clip-rule="evenodd" d="M837.82 551.684C839.567 551.684 840.984 553.218 840.984 555.11V606.497C840.984 608.389 839.567 609.923 837.82 609.923C836.072 609.923 834.656 608.389 834.656 606.497V555.11C834.656 553.218 836.072 551.684 837.82 551.684Z" fill="#1D3557"/>
<path d="M933.93 433.526H901.829V489.174H933.93V433.526Z" fill="white" stroke="#1D3557" stroke-width="12.5"/>
<path d="M1030.81 511.317H889.874V614.832H1030.81V511.317Z" fill="white" stroke="#1D3557" stroke-width="12.5"/>
<path d="M1010.48 534.199H964.407V613.852H1010.48V534.199Z" fill="#457B9D" stroke="#1D3557" stroke-width="12.5"/>
<path d="M944.759 543.33H908.169V581.616H944.759V543.33Z" fill="white" stroke="#1D3557" stroke-width="12.5"/>
<path d="M926.973 544.325V579.416" stroke="#1D3557" stroke-width="12.5"/>
<path d="M943.744 561.868H910.208" stroke="#1D3557" stroke-width="12.5"/>
<path fill-rule="evenodd" clip-rule="evenodd" d="M875 518.232H1046.05L959.498 430L875 518.232Z" fill="#457B9D" stroke="#1D3557" stroke-width="12.5"/>
<g style="mix-blend-mode:multiply">
<path d="M1133 517.5C1133 624.919 1049.28 712 946 712C842.723 712 759 624.919 759 517.5C759 410.081 842.723 323 946 323C1049.28 323 1133 410.081 1133 517.5Z" fill="#D9D9D9"/>
</g>
<g style="mix-blend-mode:multiply">
<path d="M692 510.5C692 617.919 608.277 705 505 705C401.723 705 318 617.919 318 510.5C318 403.081 401.723 316 505 316C608.277 316 692 403.081 692 510.5Z" fill="#D9D9D9"/>
</g>
</g>
<rect x="0.5" y="0.5" width="1439" height="2098" stroke="#A8DADC"/>
<defs>
<clipPath id="clip0_30_2">
<rect width="1440" height="2099" fill="white"/>
</clipPath>
<clipPath id="clip1_30_2">
<rect width="229" height="243" fill="white" transform="translate(398 367)"/>
</clipPath>
</defs>
</svg>
