<svg width="2204" height="1024" viewBox="0 0 2204 1024" fill="none" xmlns="http://www.w3.org/2000/svg">
<g clip-path="url(#clip0_70_62)">
<path d="M-61.9324 -30.6176H2265.93V1054.62H-61.9324V-30.6176Z" fill="#A8DADC"/>
<path d="M-69.8665 752.845H2273.87V1093.84H-69.8665V752.845Z" fill="#CC9A65"/>
<path d="M-71.8503 703.693H2273.87V752.845H-71.8503V703.693Z" fill="#FFFEFB"/>
<path d="M510 770V1003H459.273L459.273 857.713H236.852L236.852 1003H184V770H510Z" fill="white"/>
<path d="M1402.11 706.222H2026.89C2041.23 706.222 2052.97 696.085 2052.97 683.694V588.36C2052.97 575.97 2041.23 565.832 2026.89 565.832H1714.5H1402.11C1387.76 565.832 1376.03 575.97 1376.03 588.36V683.694C1376.03 696.085 1387.76 706.222 1402.11 706.222Z" fill="#1D3557"/>
<path d="M1742.29 706.677H2026.71C2041.17 706.677 2053 696.511 2053 684.085V538.268C2053 525.843 2041.17 515.677 2026.71 515.677H1742.29C1727.83 515.677 1716 525.843 1716 538.268V684.085C1716 696.511 1727.83 706.677 1742.29 706.677Z" fill="#457B9D"/>
<path d="M1402.29 706.677H1686.71C1701.17 706.677 1713 696.511 1713 684.085V538.268C1713 525.843 1701.17 515.677 1686.71 515.677H1402.29C1387.83 515.677 1376 525.843 1376 538.268V684.085C1376 696.511 1387.83 706.677 1402.29 706.677Z" fill="#457B9D"/>
<path d="M1360.26 782.101H2076.92C2091.26 782.101 2103 771.963 2103 759.573V728.75C2103 716.36 2091.26 706.222 2076.92 706.222H1360.14C1345.79 706.222 1334.06 716.36 1334.06 728.75V759.573C1334.18 771.963 1345.91 782.101 1360.26 782.101Z" fill="#1D3557"/>
<path d="M1972 706.222H2052.61C2066.96 706.222 2078.7 696.085 2078.7 683.694V654.101C2078.7 641.71 2066.96 631.573 2052.61 631.573H1972C1957.65 631.573 1945.92 641.71 1945.92 654.101V683.694C1945.92 696.085 1957.65 706.222 1972 706.222Z" fill="#1D3557"/>
<path d="M1376.26 706.222H1456.88C1471.22 706.222 1482.96 696.085 1482.96 683.694V654.101C1482.96 641.71 1471.22 631.573 1456.88 631.573H1376.26C1361.92 631.573 1350.18 641.71 1350.18 654.101V683.694C1350.18 696.085 1361.92 706.222 1376.26 706.222Z" fill="#1D3557"/>
<path d="M1999.62 782.408H2032.46V818.658H1999.62V782.408Z" fill="white"/>
<path d="M1404.72 782.408H1437.56V818.658H1404.72V782.408Z" fill="white"/>
<path d="M1604.48 365.538H1987.29V395.643H1604.48V365.538Z" fill="#1D3557"/>
<path d="M1919 270.677H1946V365.677H1919V270.677Z" fill="#457B9D"/>
<path d="M1888.3 253H1915.68V365.538H1888.3V253Z" fill="white"/>
<path d="M1868.86 813.845H2047.87C2062.22 813.845 2073.95 823.982 2073.95 836.373V851.733C2073.95 864.123 2062.22 874.261 2047.87 874.261H1868.86C1854.51 874.261 1842.77 864.123 1842.77 851.733V836.373C1842.77 823.982 1854.51 813.845 1868.86 813.845Z" fill="#457B9D"/>
<path d="M1842.77 844.053H2073.95V905.493H1842.77V844.053Z" fill="#1D3557"/>
<path d="M2033.41 905.493H2052.38V935.189H2033.41V905.493Z" fill="white"/>
<path d="M1864.47 905.493H1883.44V935.189H1864.47V905.493Z" fill="white"/>
<path d="M598.957 714.579L602.449 737.46L397.599 874.749L391.609 852.975L598.957 714.579Z" fill="#4D4D4D"/>
<path d="M163.956 577.307L209.29 752.732L209.553 752.97L212.426 771.799L397.665 874.766L394.173 851.885L229.955 760.597L185.737 588.032L163.956 577.307Z" fill="#1A1A1A"/>
<path d="M434.486 623.052L598.993 714.578L394.143 851.867L229.616 760.582L434.486 623.052Z" fill="#666666"/>
<path d="M184.599 588.73L229.784 760.682L436.287 623.052L389.449 451.441L184.599 588.73Z" fill="#4D4D4D"/>
<path d="M368.885 440L390.098 451.2L182.57 590.416L164.035 577.289L368.885 440Z" fill="#666666"/>
<path d="M503.874 770.18L462.747 747.299L428.606 770.18L469.732 793.062L503.874 770.18Z" fill="#4D4D4D"/>
<path d="M520.214 691.696L437.964 645.933L267.254 760.341L349.505 806.104L520.214 691.696Z" fill="#333333"/>
<path d="M368.958 440L389.49 451.441L434.469 623.052L598.947 714.579L602.439 737.46L397.741 874.749L214.07 771.442L164.034 577.289L368.958 440Z" stroke="black" stroke-width="9.91529" stroke-linejoin="round"/>
<path d="M203.444 599.526L380.342 481.184L415.161 616.812L237.01 734.473L203.444 599.526Z" fill="url(#paint0_linear_70_62)"/>
<path d="M529.83 1001.31C529.83 1001.31 535.351 973.807 569.72 977.033C615.95 981.374 617.273 1009.1 617.273 1009.1C619.983 1017.68 527.525 1012.56 529.83 1001.31Z" fill="#1D3557" stroke="black" stroke-width="7.31513"/>
<path fill-rule="evenodd" clip-rule="evenodd" d="M476.124 797.795C471.424 809.488 475.464 824.637 485.147 831.633C494.83 838.629 506.489 834.821 511.188 823.129C515.887 811.437 511.847 796.287 502.164 789.292C492.482 782.296 480.823 786.103 476.124 797.795Z" fill="#CFC0A1" stroke="black" stroke-width="6.85729" stroke-linecap="round" stroke-linejoin="round"/>
<path d="M522.167 849.669C513.095 853.311 487.567 784.94 497.557 780.235C617.741 711.606 629.02 743.565 634.741 754.469C636.219 777.384 598.436 805.475 522.167 849.669Z" fill="#457B9D" stroke="black" stroke-width="7.75075"/>
<path d="M659.999 869.81L663.491 869.81C718.557 869.815 763.174 886.464 763.146 906.997L763.065 967.738C763.037 988.272 718.375 1004.91 663.309 1004.91L659.817 1004.91C604.751 1004.9 560.134 988.255 560.162 967.722L560.243 906.981C560.271 886.447 604.933 869.805 659.999 869.81Z" fill="white" stroke="black" stroke-width="9.29487" stroke-linecap="round" stroke-linejoin="round"/>
<path d="M618.217 998.227L619.251 955.362Z" fill="#7D8F9A"/>
<path d="M618.217 998.227L619.251 955.362" stroke="black" stroke-width="6.1653" stroke-linecap="round" stroke-linejoin="round"/>
<path fill-rule="evenodd" clip-rule="evenodd" d="M647.774 698.703C648.128 698.699 648.485 698.703 648.839 698.703C649.04 698.703 649.241 698.665 649.442 698.665C649.752 698.665 650.068 698.627 650.379 698.627V698.714C674.164 699.592 696.595 715.189 711.885 735.208C744.65 777.826 758.237 834.697 760.775 889.536C760.323 903.628 763.202 920.46 758.298 932.794C739.639 946.488 706.17 949.541 683.396 953.203C677.338 953.662 667.706 953.989 657.248 954.318V954.356C656.15 954.393 655.105 954.398 654.023 954.419C653.915 954.419 653.813 954.423 653.705 954.419C643.243 954.615 633.607 954.769 627.533 954.615C604.593 952.099 571.005 950.727 551.634 937.986C546.073 925.915 548.044 908.962 546.836 894.912C546.425 840.021 556.939 782.547 587.369 738.345C601.563 717.588 623.128 700.887 646.835 698.817V698.693C647.145 698.693 647.461 698.655 647.772 698.655L647.774 698.703Z" fill="#457B9D" stroke="black" stroke-width="9.32842" stroke-linecap="round" stroke-linejoin="round"/>
<path fill-rule="evenodd" clip-rule="evenodd" d="M764.026 903.929C757.076 914.304 742.725 918.686 731.972 913.717C721.219 908.748 718.137 896.31 725.087 885.936C732.038 875.562 746.389 871.18 757.142 876.148C767.895 881.117 770.977 893.555 764.026 903.929Z" fill="#CFC0A1" stroke="black" stroke-width="6.85732" stroke-linecap="round" stroke-linejoin="round"/>
<path d="M779.907 1002.86C779.907 1002.86 776.028 968.371 726.703 970.703C660.351 973.84 654.468 1008.26 654.468 1008.26C649.376 1018.81 781.562 1016.95 779.907 1002.86Z" fill="#1D3557" stroke="black" stroke-width="8.06531"/>
<path d="M727.904 888.023C730.743 898.501 807.384 880.431 804.868 868.472C785.052 717.321 749.66 726.365 736.343 727.743C714.818 732.648 715.889 791.714 727.904 888.023Z" fill="#457B9D" stroke="black" stroke-width="8.48343"/>
<path d="M660.855 522.594H671.577C737.703 522.594 791.308 571.462 791.308 631.744V639.272C791.308 699.554 737.703 748.423 671.577 748.423H660.855C594.73 748.423 541.124 699.554 541.124 639.272V631.744C541.124 571.462 594.73 522.594 660.855 522.594Z" fill="#CFC0A1" stroke="black" stroke-width="9.72369" stroke-linecap="round" stroke-linejoin="bevel"/>
<path d="M635.229 676.948L612.46 681.917" stroke="black" stroke-width="8.40418" stroke-linecap="round" stroke-linejoin="round"/>
<path d="M649.132 620.98C650.334 627.085 656.004 631.008 661.803 629.742C667.601 628.477 671.327 622.504 670.126 616.398C668.925 610.295 663.25 606.369 657.452 607.634C651.653 608.9 647.931 614.876 649.132 620.98Z" fill="#231F20"/>
<path d="M564.749 637.465C565.95 643.571 571.62 647.493 577.42 646.228C583.218 644.962 586.944 638.989 585.743 632.883C584.542 626.78 578.867 622.854 573.069 624.119C567.269 625.385 563.548 631.361 564.749 637.465Z" fill="#231F20"/>
<path fill-rule="evenodd" clip-rule="evenodd" d="M707.926 459.249C701.567 459.647 700.564 480.015 693.251 478.449C685.45 476.778 682.125 456.342 674.149 455.417C666.174 454.49 663.304 480.093 655.228 480.163C647.151 480.235 644.481 454.622 636.553 455.531C628.625 456.44 639.347 478.312 631.74 480.355C624.133 482.397 616.346 461.248 608.877 464.009C601.408 466.771 605.724 493.297 598.803 497.197C591.882 501.097 578.575 477.931 571.927 482.275C565.279 486.619 580.533 509.208 574.421 514.361C568.309 519.514 550.114 503.535 544.922 509.508C539.73 515.474 562.537 532.424 558.283 538.932C554.028 545.44 530.491 530.712 526.916 537.715C523.341 544.719 547.193 550.849 544.336 558.24C541.479 565.633 516.923 560.676 515.177 568.28C513.431 575.885 531.767 585.75 530.885 593.659C530.003 601.568 509.232 601.008 508.897 608.803C508.595 615.813 530.363 613.25 535.539 618.345L537.605 618.768C544.021 617.138 556.007 618.429 557.757 614.161C560.074 608.509 540.097 603.537 543.017 598.192C545.937 592.845 565.787 604.439 569.278 599.481C572.77 594.522 553.502 581.28 557.781 576.747C562.059 572.214 577.453 584.676 582.507 580.778C587.56 576.88 574.682 559.355 580.19 556.083C585.698 552.811 596.985 570.674 602.725 567.747C608.465 564.82 604.594 544.386 610.801 542.34C617.008 540.293 623.666 556.663 629.996 555.17C636.325 553.677 627.213 536.758 633.82 536.139C640.427 535.519 642.872 555.326 649.611 555.353C656.35 555.39 658.44 535.602 665.103 536.393C671.766 537.185 674.869 552.894 681.394 554.256C687.918 555.616 688.217 537.742 694.581 539.824C700.945 541.905 694.306 560.469 700.494 563.034C706.678 565.611 718.93 550.548 724.902 553.595C730.874 556.641 719.127 569.784 724.69 573.4C730.253 577.017 744.008 570.438 748.942 574.629C753.877 578.82 739.53 584.952 743.952 589.686C748.374 594.419 765.479 585.733 769.053 590.921C772.627 596.11 753.962 605.628 757.006 611.106C760.05 616.585 781.41 613.581 783.835 619.251C786.26 624.921 765.905 631.729 767.676 637.637C769.447 643.545 788.008 636.552 788.765 642.672C789.521 648.792 770.971 648.713 771.112 654.778C771.218 659.349 783.338 662.607 788.974 666.46C796.444 664.879 811.249 670.31 813.471 664.279C816.193 656.889 793.761 653.28 795.89 645.75C798.018 638.219 822.879 635.66 823.966 627.947C825.053 620.235 799.469 615.675 799.385 607.782C799.302 599.891 821.558 599.786 820.738 591.832C819.917 583.878 797.707 593.273 795.668 585.612C793.629 577.95 817.978 568.767 815.152 561.424C812.325 554.081 786.757 558.292 783.186 551.21C779.615 544.127 802.087 531.463 797.876 524.766C793.666 518.068 773.128 529.609 767.894 523.517C762.661 517.425 779.899 509.141 774.045 503.763C768.19 498.384 751.632 507.157 745.015 502.537C738.398 497.917 752.602 480.703 745.487 476.831C738.372 472.959 723.469 492.688 716.088 489.448C708.708 486.205 716.878 462.062 709.279 459.452C708.802 459.298 708.35 459.226 707.924 459.264L707.926 459.249Z" fill="black"/>
<path d="M216.024 667.213L198.158 598.23L288.112 537.718L383.018 473.875L402.63 546.16L422.403 619.042L325.673 679.478L234.029 736.736L216.024 667.213Z" fill="white"/>
</g>
<defs>
<linearGradient id="paint0_linear_70_62" x1="295.658" y1="538.487" x2="306.647" y2="674.87" gradientUnits="userSpaceOnUse">
<stop stop-color="#EEFFAA"/>
<stop offset="1" stop-color="white"/>
</linearGradient>
<clipPath id="clip0_70_62">
<rect width="2204" height="1024" fill="white" transform="matrix(-1 0 0 1 2204 0)"/>
</clipPath>
</defs>
</svg>
