<svg width="282" height="467" viewBox="0 0 282 467" fill="none" xmlns="http://www.w3.org/2000/svg">
<path fill-rule="evenodd" clip-rule="evenodd" d="M255.51 390.962C249.703 399.858 237.712 403.615 228.728 399.355C219.743 395.094 217.168 384.428 222.975 375.533C228.783 366.637 240.774 362.879 249.758 367.14C258.742 371.401 261.318 382.066 255.51 390.962Z" fill="#CFC0A1" stroke="black" stroke-width="6.85732" stroke-linecap="round" stroke-linejoin="round"/>
<path d="M193.112 379.93C195.484 388.915 259.52 373.42 257.418 363.165C240.861 233.553 211.289 241.309 200.163 242.49C182.178 246.697 183.073 297.345 193.112 379.93Z" fill="#457B9D" stroke="black" stroke-width="8.48343"/>
<path fill-rule="evenodd" clip-rule="evenodd" d="M10.6533 281.664C6.72696 291.69 10.1024 304.681 18.1927 310.68C26.283 316.678 36.0243 313.414 39.9507 303.388C43.877 293.362 40.5016 280.371 32.4113 274.372C24.321 268.373 14.5796 271.638 10.6533 281.664Z" fill="#CFC0A1" stroke="black" stroke-width="6.85729" stroke-linecap="round" stroke-linejoin="round"/>
<path d="M49.1243 326.145C41.5447 329.268 20.2148 270.64 28.5619 266.606C128.98 207.756 138.404 235.162 143.184 244.512C144.419 264.161 112.85 288.249 49.1243 326.145Z" fill="#457B9D" stroke="black" stroke-width="7.75075"/>
<path d="M144.288 355.363L147.205 355.363C193.215 355.367 230.494 369.644 230.47 387.251L230.401 439.336C230.378 456.943 193.061 471.214 147.051 471.21L144.134 471.21C98.1242 471.206 60.8451 456.929 60.8685 439.322L60.9376 387.237C60.961 369.629 98.2781 355.359 144.288 355.363Z" fill="white" stroke="black" stroke-width="9.29487" stroke-linecap="round" stroke-linejoin="round"/>
<path d="M109.377 465.481L110.241 428.723Z" fill="#7D8F9A"/>
<path d="M109.377 465.481L110.241 428.723" stroke="black" stroke-width="6.1653" stroke-linecap="round" stroke-linejoin="round"/>
<path fill-rule="evenodd" clip-rule="evenodd" d="M134.073 208.639C134.37 208.636 134.667 208.639 134.963 208.639C135.131 208.639 135.299 208.607 135.467 208.607C135.726 208.607 135.99 208.574 136.25 208.574V208.648C156.124 209.401 174.865 222.776 187.64 239.942C215.017 276.487 226.369 325.254 228.489 372.278C228.112 384.362 230.518 398.795 226.42 409.371C210.83 421.114 182.865 423.732 163.837 426.872C158.776 427.266 150.728 427.546 141.989 427.828V427.861C141.072 427.893 140.199 427.897 139.295 427.915C139.205 427.915 139.119 427.919 139.029 427.915C130.288 428.083 122.236 428.215 117.161 428.083C97.9943 425.925 69.9304 424.749 53.7449 413.823C49.0986 403.473 50.7457 388.936 49.7361 376.888C49.3927 329.819 58.1773 280.535 83.6032 242.632C95.4625 224.832 113.481 210.512 133.289 208.737V208.631C133.548 208.631 133.812 208.598 134.071 208.598L134.073 208.639Z" fill="#457B9D" stroke="black" stroke-width="9.32842" stroke-linecap="round" stroke-linejoin="round"/>
<path d="M145.003 57.6252H153.962C209.212 57.6252 254.001 99.5299 254.001 151.222V157.677C254.001 209.369 209.212 251.274 153.962 251.274H145.003C89.7526 251.274 44.9635 209.369 44.9635 157.677V151.222C44.9635 99.5299 89.7526 57.6252 145.003 57.6252Z" fill="#CFC0A1" stroke="black" stroke-width="9.72369" stroke-linecap="round" stroke-linejoin="bevel"/>
<path d="M123.592 189.984L104.567 194.245" stroke="black" stroke-width="8.40418" stroke-linecap="round" stroke-linejoin="round"/>
<path d="M135.208 141.991C136.212 147.227 140.949 150.591 145.795 149.505C150.639 148.42 153.753 143.298 152.749 138.063C151.745 132.829 147.004 129.462 142.16 130.547C137.314 131.633 134.204 136.758 135.208 141.991Z" fill="#231F20"/>
<path d="M64.7027 156.128C65.7066 161.363 70.444 164.727 75.2899 163.642C80.1342 162.557 83.2479 157.434 82.244 152.199C81.2404 146.965 76.499 143.598 71.6547 144.683C66.8088 145.769 63.6991 150.894 64.7027 156.128Z" fill="#231F20"/>
<path fill-rule="evenodd" clip-rule="evenodd" d="M184.332 3.30695C179.019 3.64874 178.181 21.1142 172.07 19.7709C165.553 18.3382 162.774 0.814696 156.111 0.0210604C149.447 -0.773543 147.049 21.1807 140.301 21.241C133.553 21.3024 131.322 -0.660581 124.698 0.119176C118.074 0.89861 127.032 19.6541 120.676 21.4053C114.32 23.1569 107.813 5.02138 101.573 7.38905C95.3327 9.75705 98.9387 32.5036 93.156 35.8479C87.3734 39.1916 76.2547 19.3268 70.6999 23.052C65.1452 26.7771 77.8909 46.1474 72.7842 50.5658C67.6774 54.9846 52.4751 41.2823 48.1363 46.404C43.7985 51.5205 62.8549 66.0548 59.3001 71.6354C55.7452 77.2164 36.0793 64.5866 33.0921 70.592C30.105 76.598 50.034 81.8539 47.6471 88.1923C45.2602 94.5317 24.742 90.2805 23.2832 96.8013C21.8244 103.322 37.1448 111.782 36.4078 118.563C35.671 125.345 18.3164 124.865 18.0363 131.55C17.7844 137.56 35.9723 135.363 40.2965 139.732L42.0232 140.095C47.3838 138.697 57.3983 139.804 58.8603 136.144C60.7962 131.298 44.105 127.034 46.5447 122.45C48.9846 117.866 65.5698 127.808 68.487 123.556C71.4043 119.304 55.3058 107.949 58.8806 104.061C62.4554 100.174 75.3178 110.861 79.5401 107.518C83.7623 104.176 73.0017 89.1477 77.604 86.3424C82.2064 83.5367 91.6373 98.8543 96.4332 96.3443C101.229 93.8343 97.9943 76.3123 103.181 74.5576C108.367 72.8021 113.93 86.84 119.219 85.5594C124.507 84.279 116.893 69.7709 122.414 69.24C127.934 68.7091 129.977 85.693 135.608 85.7162C141.238 85.7483 142.985 68.7797 148.552 69.4582C154.12 70.1375 156.712 83.6077 162.164 84.7757C167.615 85.9421 167.865 70.6146 173.182 72.4C178.499 74.1845 172.952 90.1037 178.123 92.3028C183.29 94.5127 193.527 81.596 198.516 84.2087C203.506 86.821 193.691 98.0907 198.339 101.192C202.987 104.293 214.48 98.6513 218.603 102.245C222.726 105.84 210.739 111.097 214.433 115.157C218.128 119.215 232.42 111.767 235.406 116.216C238.392 120.666 222.797 128.827 225.34 133.525C227.884 138.222 245.731 135.646 247.757 140.509C249.783 145.371 232.776 151.209 234.256 156.275C235.735 161.341 251.244 155.344 251.876 160.592C252.508 165.84 237.009 165.772 237.127 170.973C237.215 174.893 247.341 177.687 252.051 180.99C258.292 179.635 270.662 184.292 272.519 179.121C274.794 172.784 256.051 169.689 257.829 163.231C259.608 156.774 280.38 154.579 281.288 147.966C282.196 141.352 260.819 137.442 260.75 130.675C260.68 123.908 279.276 123.817 278.59 116.997C277.905 110.177 259.348 118.233 257.644 111.663C255.94 105.093 276.285 97.2189 273.923 90.9225C271.562 84.626 250.198 88.2369 247.215 82.1634C244.231 76.09 263.007 65.2305 259.489 59.4879C255.971 53.7449 238.811 63.641 234.438 58.417C230.065 53.193 244.469 46.0897 239.577 41.4776C234.685 36.8655 220.85 44.3881 215.321 40.4264C209.792 36.4647 221.661 21.7039 215.716 18.3834C209.771 15.0633 197.319 31.9814 191.152 29.2026C184.985 26.4224 191.812 5.71981 185.463 3.48123C185.064 3.34891 184.686 3.28758 184.33 3.31986L184.332 3.30695Z" fill="black"/>
<path fill-rule="evenodd" clip-rule="evenodd" d="M178.435 213.87C173.309 213.65 172.501 202.399 166.606 203.264C160.318 204.187 157.637 215.475 151.209 215.986C144.78 216.498 142.467 202.356 135.956 202.317C129.446 202.278 127.294 216.426 120.903 215.923C114.513 215.421 123.156 203.339 117.024 202.211C110.892 201.083 104.614 212.765 98.594 211.24C92.5736 209.715 96.0525 195.062 90.4736 192.908C84.8949 190.754 74.1682 203.55 68.8093 201.15C63.4504 198.751 75.7467 186.273 70.8201 183.427C65.8934 180.58 51.227 189.407 47.0412 186.108C42.8564 182.812 61.2409 173.449 57.8114 169.854C54.3819 166.259 35.4093 174.395 32.5274 170.526C29.6456 166.657 48.872 163.272 46.5693 159.189C44.2665 155.105 24.4717 157.843 23.0643 153.643C21.657 149.442 36.4373 143.993 35.7262 139.624C35.0154 135.256 18.2727 135.565 18.0024 131.259C17.7594 127.387 35.3061 128.803 39.4778 125.988L41.1436 125.754C46.3152 126.655 55.9766 125.942 57.3871 128.299C59.2548 131.421 43.152 134.168 45.5057 137.12C47.8596 140.074 63.86 133.669 66.6744 136.408C69.4889 139.147 53.9579 146.462 57.4067 148.966C60.8555 151.47 73.2644 144.586 77.3378 146.739C81.4111 148.892 71.03 158.573 75.47 160.38C79.9101 162.188 89.0085 152.32 93.6353 153.937C98.2621 155.554 95.1413 166.841 100.145 167.972C105.149 169.103 110.515 160.06 115.617 160.885C120.719 161.709 113.374 171.055 118.7 171.397C124.026 171.739 125.997 160.799 131.429 160.784C136.861 160.763 138.545 171.694 143.917 171.257C149.288 170.819 151.789 162.142 157.048 161.389C162.307 160.638 162.548 170.512 167.678 169.362C172.808 168.212 167.456 157.957 172.445 156.541C177.429 155.117 187.306 163.438 192.119 161.755C196.933 160.072 187.464 152.812 191.948 150.815C196.433 148.817 207.52 152.451 211.498 150.136C215.475 147.821 203.911 144.434 207.475 141.819C211.04 139.204 224.827 144.002 227.708 141.137C230.589 138.27 215.544 133.013 217.998 129.987C220.451 126.96 237.669 128.62 239.624 125.488C241.578 122.355 225.171 118.595 226.599 115.332C228.026 112.068 242.988 115.931 243.598 112.551C244.207 109.17 229.255 109.214 229.368 105.863C229.454 103.338 239.223 101.539 243.766 99.4104C249.788 100.283 261.722 97.2838 263.513 100.615C265.707 104.697 247.625 106.69 249.341 110.85C251.057 115.01 271.096 116.424 271.973 120.684C272.849 124.944 252.226 127.463 252.158 131.823C252.091 136.182 270.032 136.24 269.37 140.633C268.709 145.027 250.806 139.837 249.162 144.069C247.518 148.301 267.146 153.374 264.867 157.43C262.589 161.486 241.979 159.16 239.101 163.072C236.222 166.985 254.337 173.98 250.942 177.679C247.548 181.379 230.993 175.004 226.774 178.369C222.556 181.734 236.451 186.31 231.732 189.281C227.012 192.252 213.665 187.406 208.332 189.958C202.998 192.51 214.448 202.019 208.712 204.158C202.977 206.297 190.965 195.398 185.015 197.188C179.065 198.979 185.651 212.315 179.526 213.757C179.141 213.843 178.777 213.882 178.433 213.861L178.435 213.87Z" fill="black"/>
<path d="M67.8264 126.519C69.5128 129.125 74.3231 129.88 77.1091 130.798C79.2403 131.5 86.8567 134.807 88.7947 133.3C89.0539 133.098 89.4505 124.144 90.3418 125.926" stroke="black" stroke-width="3" stroke-linecap="round"/>
<path d="M196.401 94.5232H195.809" stroke="black" stroke-width="15" stroke-linecap="round"/>
<path d="M111.672 108.743C109.538 115.013 110.487 122.357 110.487 128.889C110.487 130.129 109.978 132.84 110.553 133.991C111.297 135.479 111.275 130.743 111.639 129.119C113.489 120.881 114.589 116.427 117.202 107.822C122.597 90.0583 128.993 70.9615 139.421 55.3188C139.75 54.8255 141.583 51.2131 142.022 53.3108C142.759 56.8309 142.378 60.7094 142.219 64.2393C141.761 74.4385 140.904 84.61 140.113 94.7866C138.387 116.984 137.743 139.161 137.743 161.411C137.743 165.282 137.872 169.835 139.652 173.327C139.827 173.671 140.382 174.907 140.936 174.907C141.474 174.907 141.317 173.892 141.396 173.36C142.151 168.303 141.601 170.967 142.911 163.847C147.316 139.903 153.128 116.239 159.6 92.7786C159.9 91.6906 166.73 71.5107 167.829 72.732C169.118 74.1643 167.961 81.0739 167.961 82.8047C167.961 100.107 167.15 117.388 166.776 134.682C166.559 144.701 166.183 154.714 166.183 164.736C166.183 166.046 166.057 167.428 166.315 168.719C166.493 169.61 166.717 170.105 166.776 168.785C167.072 162.062 169.099 155.587 170.989 149.166C176.951 128.91 183.857 109.056 191.826 89.5198C191.863 89.4291 195.216 82.2947 195.216 84.8126C195.216 105.463 195.539 126.165 196.401 146.796C196.548 150.319 196.741 153.842 196.961 157.362C197.024 158.37 196.999 155.342 197.06 154.334C197.905 140.177 203.747 125.465 209.107 112.463C210.378 109.382 211.727 106.334 213.057 103.279C213.459 102.358 214.12 99.85 214.637 100.712C215.458 102.079 214.784 105.785 214.901 107.295C215.438 114.216 216.566 121.037 217.765 127.868C218.56 132.405 219.29 136.975 220.332 141.463C220.538 142.352 221.135 144.695 221.583 143.899C222.431 142.391 222.415 139.707 222.735 138.106C223.821 132.675 225.581 127.453 227.607 122.305C228.327 120.476 232.742 106.576 233.795 115.524C234.818 124.214 234.322 133.186 234.322 141.924" stroke="black" stroke-width="30" stroke-linecap="round"/>
<path d="M230.174 144.887C227.073 147.643 218.447 146.072 214.802 146.072C203.753 146.072 192.699 147.748 181.654 148.178C167.843 148.716 154.529 147.729 141.298 143.702" stroke="black" stroke-width="30" stroke-linecap="round"/>
<path d="M71.974 132.444C72.785 132.212 72.5607 132.208 73.8174 132.51C79.4504 133.86 84.9957 135.951 90.4406 137.875C101.709 141.858 112.765 146.366 124.115 150.12C127.049 151.091 131.682 153.708 134.945 153.708C134.945 153.708 131.729 151.687 131.258 151.404C123.745 146.897 114.979 144.126 106.932 140.739C93.9505 135.276 80.267 131.522 67.3656 125.926C64.4189 124.648 61.6717 123.178 58.3792 123.589C56.6072 123.811 53.4914 129.282 54.2975 131.028C55.5414 133.724 60.3659 135.337 62.6584 136.756C72.2305 142.682 81.1553 149.559 90.9673 155.124C100.442 160.497 110.183 163.439 120.988 163.88C123.699 163.991 126.5 164.155 129.184 164.571C129.841 164.673 130.471 164.89 131.126 164.999C134.438 165.551 126.135 160.505 123.588 158.317C107.957 144.887 92.5145 131.971 80.6642 114.998C77.9322 111.085 75.1191 107.075 72.6982 102.95C71.7517 101.337 73.0683 101.599 74.4757 101.666C78.6541 101.865 82.755 102.226 86.9514 102.226C94.5114 102.226 102.071 102.226 109.631 102.226C114.087 102.226 111.265 100.797 108.841 98.8354C107.305 97.5915 91.8532 84.2292 93.4361 82.8047C94.0031 82.2943 97.4795 83.6393 98.1762 83.7264C100.533 84.021 104.408 84.8145 106.274 82.8047C108.538 80.3667 99.0498 79.7066 98.3737 79.7105C90.7212 79.7537 82.103 80.5071 74.7391 82.673C71.2652 83.6947 77.7319 83.858 78.4916 83.858" stroke="black" stroke-width="30" stroke-linecap="round"/>
<path d="M236.051 156.777C238.351 156.777 239.066 159.834 240.361 161.314" stroke="black" stroke-width="30" stroke-linecap="round"/>
<path d="M91.8085 174.465V174.811" stroke="black" stroke-width="30" stroke-linecap="round"/>
<path d="M58.1838 156.439C57.5301 156.512 55.2953 157.363 55.064 157.826" stroke="black" stroke-width="20" stroke-linecap="round"/>
<path d="M70.6631 163.719C69.2144 163.719 66.7664 165.382 65.733 166.415C64.6776 167.47 62.974 168.526 61.6503 169.188C59.3827 170.322 57.9034 172.341 55.7573 173.772" stroke="black" stroke-width="20" stroke-linecap="round"/>
</svg>
