<svg width="794" height="1123" viewBox="0 0 794 1123" fill="none" xmlns="http://www.w3.org/2000/svg">
<g filter="url(#filter0_d_1_2)">
<path d="M130.219 731.254C130.219 749.591 137.49 767.18 150.439 780.164C163.388 793.148 180.957 800.468 199.294 800.518C217.631 800.568 235.24 793.345 248.259 780.432C261.279 767.52 268.647 749.971 268.748 731.634C268.848 713.297 261.673 695.668 248.796 682.613C235.919 669.558 218.391 662.142 200.054 661.991C181.718 661.84 164.069 668.967 150.979 681.808C137.889 694.649 130.425 712.157 130.223 730.493" fill="#457B9D"/>
<path d="M130.219 731.254C130.219 749.591 137.49 767.18 150.439 780.164C163.388 793.148 180.957 800.468 199.294 800.518C217.631 800.568 235.24 793.345 248.259 780.432C261.279 767.52 268.647 749.971 268.748 731.634C268.848 713.297 261.673 695.668 248.796 682.613C235.919 669.558 218.391 662.142 200.054 661.991C181.718 661.84 164.069 668.967 150.979 681.808C137.889 694.649 130.425 712.157 130.223 730.493" stroke="#1D3557" stroke-width="21.5603"/>
<path d="M533.833 731.465C533.833 749.802 541.104 767.391 554.053 780.375C567.001 793.359 584.57 800.679 602.908 800.729C621.245 800.779 638.853 793.556 651.873 780.643C664.893 767.73 672.261 750.182 672.361 731.845C672.462 713.508 665.287 695.879 652.41 682.824C639.533 669.769 622.004 662.353 603.668 662.202C585.331 662.051 567.683 669.177 554.593 682.019C541.502 694.86 534.038 712.368 533.837 730.704" fill="#457B9D"/>
<path d="M533.833 731.465C533.833 749.802 541.104 767.391 554.053 780.375C567.001 793.359 584.57 800.679 602.908 800.729C621.245 800.779 638.853 793.556 651.873 780.643C664.893 767.73 672.261 750.182 672.361 731.845C672.462 713.508 665.287 695.879 652.41 682.824C639.533 669.769 622.004 662.353 603.668 662.202C585.331 662.051 567.683 669.177 554.593 682.019C541.502 694.86 534.038 712.368 533.837 730.704" stroke="#1D3557" stroke-width="21.5603"/>
<path d="M742.866 389.453C743.882 389.453 744.701 390.273 744.701 391.288V731.378C744.701 732.396 743.882 733.213 742.866 733.213H689.46C689.46 710.564 680.512 688.833 664.565 672.75C648.618 656.668 626.963 647.536 604.315 647.344C581.581 647.156 559.701 655.991 543.471 671.911C527.241 687.831 517.986 709.537 517.736 732.271L517.731 733.213H288.619C287.602 733.213 286.783 732.394 286.783 731.378V391.288C286.783 390.272 287.602 389.453 288.619 389.453L742.866 389.453Z" fill="#D6AE83" stroke="#1D3557" stroke-width="21.5603"/>
<path d="M275.694 438.469V693.342C268.444 679.727 257.661 668.315 244.477 660.307C231.293 652.299 216.196 647.99 200.772 647.833C178.038 647.645 156.158 656.48 139.929 672.399C123.699 688.319 114.444 710.025 114.193 732.758L114.19 733.702H49.514V566.645L115.404 438.47L275.694 438.469ZM129.147 463.063L75.914 566.641L211.089 566.283L210.917 463.707L129.147 463.063Z" fill="#D6AE83" stroke="#1D3557" stroke-width="21.5603"/>
</g>
<defs>
<filter id="filter0_d_1_2" x="-4" y="0" width="801.701" height="1130.52" filterUnits="userSpaceOnUse" color-interpolation-filters="sRGB">
<feFlood flood-opacity="0" result="BackgroundImageFix"/>
<feColorMatrix in="SourceAlpha" type="matrix" values="0 0 0 0 0 0 0 0 0 0 0 0 0 0 0 0 0 0 127 0" result="hardAlpha"/>
<feOffset dy="4"/>
<feGaussianBlur stdDeviation="2"/>
<feComposite in2="hardAlpha" operator="out"/>
<feColorMatrix type="matrix" values="0 0 0 0 0 0 0 0 0 0 0 0 0 0 0 0 0 0 0.25 0"/>
<feBlend mode="normal" in2="BackgroundImageFix" result="effect1_dropShadow_1_2"/>
<feBlend mode="normal" in="SourceGraphic" in2="effect1_dropShadow_1_2" result="shape"/>
</filter>
</defs>
</svg>
