<svg width="1440" height="1024" viewBox="0 0 1440 1024" fill="none" xmlns="http://www.w3.org/2000/svg">
<rect width="1440" height="1024" fill="#1E1E1E"/>
<g clip-path="url(#clip0_0_1)">
<rect width="1440" height="1024" fill="#A8DADC"/>
<g clip-path="url(#clip1_0_1)">
<mask id="mask0_0_1" style="mask-type:alpha" maskUnits="userSpaceOnUse" x="174" y="313" width="229" height="243">
<path d="M403 313H174V556H403V313Z" fill="#C4C4C4"/>
</mask>
<g mask="url(#mask0_0_1)">
<path d="M396.265 320.364H180.735V556H396.265V320.364Z" fill="#A8DADC"/>
<path d="M227.882 375.591H349.118V486.045H227.882V375.591Z" fill="#F1FAEE"/>
<path fill-rule="evenodd" clip-rule="evenodd" d="M224.515 375.591C224.515 373.558 226.022 371.909 227.882 371.909H349.118C350.978 371.909 352.485 373.558 352.485 375.591V486.046C352.485 488.079 350.978 489.727 349.118 489.727H227.882C226.022 489.727 224.515 488.079 224.515 486.046V375.591ZM231.25 379.273V482.364H345.75V379.273H231.25Z" fill="#1D3557"/>
<path d="M221.147 360.864H355.853V375.591H221.147V360.864Z" fill="#457B9D"/>
<path fill-rule="evenodd" clip-rule="evenodd" d="M217.779 360.864C217.779 358.83 219.287 357.182 221.147 357.182H355.853C357.713 357.182 359.221 358.83 359.221 360.864V375.591C359.221 377.624 357.713 379.273 355.853 379.273H221.147C219.287 379.273 217.779 377.624 217.779 375.591V360.864ZM224.515 364.546V371.909H352.485V364.546H224.515Z" fill="#1D3557"/>
<path d="M241.353 390.318H261.559V412.409H241.353V390.318Z" fill="#F1FAEE"/>
<path fill-rule="evenodd" clip-rule="evenodd" d="M237.985 390.318C237.985 388.285 239.493 386.636 241.353 386.636H261.559C263.419 386.636 264.926 388.285 264.926 390.318V412.409C264.926 414.443 263.419 416.091 261.559 416.091H241.353C239.493 416.091 237.985 414.443 237.985 412.409V390.318ZM244.721 394V408.727H258.191V394H244.721Z" fill="#1D3557"/>
<path d="M237.985 412.409H264.926V423.455H237.985V412.409Z" fill="#457B9D"/>
<path fill-rule="evenodd" clip-rule="evenodd" d="M234.618 412.409C234.618 410.376 236.125 408.727 237.985 408.727H264.926C266.786 408.727 268.294 410.376 268.294 412.409V423.455C268.294 425.488 266.786 427.136 264.926 427.136H237.985C236.125 427.136 234.618 425.488 234.618 423.455V412.409ZM241.353 416.091V419.773H261.559V416.091H241.353Z" fill="#1D3557"/>
<path d="M241.353 438.182H261.559V460.273H241.353V438.182Z" fill="#F1FAEE"/>
<path fill-rule="evenodd" clip-rule="evenodd" d="M237.985 438.182C237.985 436.148 239.493 434.5 241.353 434.5H261.559C263.419 434.5 264.926 436.148 264.926 438.182V460.273C264.926 462.306 263.419 463.955 261.559 463.955H241.353C239.493 463.955 237.985 462.306 237.985 460.273V438.182ZM244.721 441.864V456.591H258.191V441.864H244.721Z" fill="#1D3557"/>
<path d="M237.985 460.273H264.926V471.318H237.985V460.273Z" fill="#457B9D"/>
<path fill-rule="evenodd" clip-rule="evenodd" d="M234.618 460.273C234.618 458.239 236.125 456.591 237.985 456.591H264.926C266.786 456.591 268.294 458.239 268.294 460.273V471.318C268.294 473.352 266.786 475 264.926 475H237.985C236.125 475 234.618 473.352 234.618 471.318V460.273ZM241.353 463.955V467.636H261.559V463.955H241.353Z" fill="#1D3557"/>
<path d="M278.397 390.318H298.603V412.409H278.397V390.318Z" fill="#F1FAEE"/>
<path fill-rule="evenodd" clip-rule="evenodd" d="M275.029 390.318C275.029 388.285 276.537 386.636 278.397 386.636H298.603C300.463 386.636 301.971 388.285 301.971 390.318V412.409C301.971 414.443 300.463 416.091 298.603 416.091H278.397C276.537 416.091 275.029 414.443 275.029 412.409V390.318ZM281.765 394V408.727H295.235V394H281.765Z" fill="#1D3557"/>
<path d="M275.029 412.409H301.971V423.455H275.029V412.409Z" fill="#457B9D"/>
<path fill-rule="evenodd" clip-rule="evenodd" d="M271.662 412.409C271.662 410.376 273.169 408.727 275.029 408.727H301.971C303.831 408.727 305.338 410.376 305.338 412.409V423.455C305.338 425.488 303.831 427.136 301.971 427.136H275.029C273.169 427.136 271.662 425.488 271.662 423.455V412.409ZM278.397 416.091V419.773H298.603V416.091H278.397Z" fill="#1D3557"/>
<path d="M278.397 438.182H298.603V460.273H278.397V438.182Z" fill="#F1FAEE"/>
<path fill-rule="evenodd" clip-rule="evenodd" d="M275.029 438.182C275.029 436.148 276.537 434.5 278.397 434.5H298.603C300.463 434.5 301.971 436.148 301.971 438.182V460.273C301.971 462.306 300.463 463.955 298.603 463.955H278.397C276.537 463.955 275.029 462.306 275.029 460.273V438.182ZM281.765 441.864V456.591H295.235V441.864H281.765Z" fill="#1D3557"/>
<path d="M275.029 460.273H301.971V471.318H275.029V460.273Z" fill="#457B9D"/>
<path fill-rule="evenodd" clip-rule="evenodd" d="M271.662 460.273C271.662 458.239 273.169 456.591 275.029 456.591H301.971C303.831 456.591 305.338 458.239 305.338 460.273V471.318C305.338 473.352 303.831 475 301.971 475H275.029C273.169 475 271.662 473.352 271.662 471.318V460.273ZM278.397 463.955V467.636H298.603V463.955H278.397Z" fill="#1D3557"/>
<path d="M315.441 390.318H335.647V412.409H315.441V390.318Z" fill="#F1FAEE"/>
<path fill-rule="evenodd" clip-rule="evenodd" d="M312.073 390.318C312.073 388.285 313.581 386.636 315.441 386.636H335.647C337.507 386.636 339.015 388.285 339.015 390.318V412.409C339.015 414.443 337.507 416.091 335.647 416.091H315.441C313.581 416.091 312.073 414.443 312.073 412.409V390.318ZM318.809 394V408.727H332.279V394H318.809Z" fill="#1D3557"/>
<path d="M312.073 412.409H339.015V423.455H312.073V412.409Z" fill="#457B9D"/>
<path fill-rule="evenodd" clip-rule="evenodd" d="M308.706 412.409C308.706 410.376 310.214 408.727 312.074 408.727H339.015C340.875 408.727 342.382 410.376 342.382 412.409V423.455C342.382 425.488 340.875 427.136 339.015 427.136H312.074C310.214 427.136 308.706 425.488 308.706 423.455V412.409ZM315.441 416.091V419.773H335.647V416.091H315.441Z" fill="#1D3557"/>
<path d="M315.441 438.182H335.647V460.273H315.441V438.182Z" fill="#F1FAEE"/>
<path fill-rule="evenodd" clip-rule="evenodd" d="M312.073 438.182C312.073 436.148 313.581 434.5 315.441 434.5H335.647C337.507 434.5 339.015 436.148 339.015 438.182V460.273C339.015 462.306 337.507 463.955 335.647 463.955H315.441C313.581 463.955 312.073 462.306 312.073 460.273V438.182ZM318.809 441.864V456.591H332.279V441.864H318.809Z" fill="#1D3557"/>
<path d="M312.073 460.273H339.015V471.318H312.073V460.273Z" fill="#457B9D"/>
<path fill-rule="evenodd" clip-rule="evenodd" d="M308.706 460.273C308.706 458.239 310.214 456.591 312.074 456.591H339.015C340.875 456.591 342.382 458.239 342.382 460.273V471.318C342.382 473.352 340.875 475 339.015 475H312.074C310.214 475 308.706 473.352 308.706 471.318V460.273ZM315.441 463.955V467.636H335.647V463.955H315.441Z" fill="#1D3557"/>
<path d="M224.515 486.046H352.485V500.773H224.515V486.046Z" fill="#457B9D"/>
<path fill-rule="evenodd" clip-rule="evenodd" d="M221.147 486.045C221.147 484.012 222.655 482.364 224.515 482.364H352.485C354.345 482.364 355.853 484.012 355.853 486.045V500.773C355.853 502.806 354.345 504.455 352.485 504.455H224.515C222.655 504.455 221.147 502.806 221.147 500.773V486.045ZM227.882 489.727V497.091H349.118V489.727H227.882Z" fill="#1D3557"/>
<path d="M227.882 500.773H349.118V552.318H227.882V500.773Z" fill="#F1FAEE"/>
<path fill-rule="evenodd" clip-rule="evenodd" d="M224.515 500.773C224.515 498.739 226.022 497.091 227.882 497.091H349.118C350.978 497.091 352.485 498.739 352.485 500.773V552.318C352.485 554.352 350.978 556 349.118 556H227.882C226.022 556 224.515 554.352 224.515 552.318V500.773ZM231.25 504.455V548.636H345.75V504.455H231.25Z" fill="#1D3557"/>
<path d="M241.353 515.5H254.824V537.591H241.353V515.5Z" fill="#F1FAEE"/>
<path fill-rule="evenodd" clip-rule="evenodd" d="M237.985 515.5C237.985 513.467 239.493 511.818 241.353 511.818H254.824C256.683 511.818 258.191 513.467 258.191 515.5V537.591C258.191 539.624 256.683 541.273 254.824 541.273H241.353C239.493 541.273 237.985 539.624 237.985 537.591V515.5ZM244.721 519.182V533.909H251.456V519.182H244.721Z" fill="#1D3557"/>
<path d="M322.176 515.5H335.647V537.591H322.176V515.5Z" fill="#F1FAEE"/>
<path fill-rule="evenodd" clip-rule="evenodd" d="M318.809 515.5C318.809 513.467 320.317 511.818 322.176 511.818H335.647C337.507 511.818 339.015 513.467 339.015 515.5V537.591C339.015 539.624 337.507 541.273 335.647 541.273H322.176C320.317 541.273 318.809 539.624 318.809 537.591V515.5ZM325.544 519.182V533.909H332.279V519.182H325.544Z" fill="#1D3557"/>
<path d="M268.294 515.5H288.5V552.318H268.294V515.5Z" fill="#F1FAEE"/>
<path fill-rule="evenodd" clip-rule="evenodd" d="M264.927 515.5C264.927 513.467 266.434 511.818 268.294 511.818H288.5C290.36 511.818 291.868 513.467 291.868 515.5V552.318C291.868 554.352 290.36 556 288.5 556H268.294C266.434 556 264.927 554.352 264.927 552.318V515.5ZM271.662 519.182V548.636H285.132V519.182H271.662Z" fill="#1D3557"/>
<path d="M288.5 515.5H308.706V552.318H288.5V515.5Z" fill="#F1FAEE"/>
<path fill-rule="evenodd" clip-rule="evenodd" d="M285.132 515.5C285.132 513.467 286.64 511.818 288.5 511.818H308.706C310.566 511.818 312.074 513.467 312.074 515.5V552.318C312.074 554.352 310.566 556 308.706 556H288.5C286.64 556 285.132 554.352 285.132 552.318V515.5ZM291.868 519.182V548.636H305.338V519.182H291.868Z" fill="#1D3557"/>
<path d="M362.588 467.636C362.588 459.503 368.619 452.909 376.059 452.909C383.498 452.909 389.529 459.503 389.529 467.636V511.818C389.529 519.952 383.498 526.545 376.059 526.545C368.619 526.545 362.588 519.952 362.588 511.818V467.636Z" fill="#457B9D"/>
<path fill-rule="evenodd" clip-rule="evenodd" d="M359.221 467.636C359.221 457.469 366.759 449.227 376.059 449.227C385.358 449.227 392.897 457.469 392.897 467.636V511.818C392.897 521.985 385.358 530.227 376.059 530.227C366.759 530.227 359.221 521.985 359.221 511.818V467.636ZM376.059 456.591C370.479 456.591 365.956 461.536 365.956 467.636V511.818C365.956 517.919 370.479 522.864 376.059 522.864C381.639 522.864 386.162 517.919 386.162 511.818V467.636C386.162 461.536 381.639 456.591 376.059 456.591Z" fill="#1D3557"/>
<path fill-rule="evenodd" clip-rule="evenodd" d="M376.059 489.727C377.919 489.727 379.426 491.376 379.426 493.409V548.636C379.426 550.67 377.919 552.318 376.059 552.318C374.199 552.318 372.691 550.67 372.691 548.636V493.409C372.691 491.376 374.199 489.727 376.059 489.727Z" fill="#1D3557"/>
<path d="M187.471 489.727C187.471 481.594 193.502 475 200.941 475C208.381 475 214.412 481.594 214.412 489.727V511.818C214.412 519.952 208.381 526.545 200.941 526.545C193.502 526.545 187.471 519.952 187.471 511.818V489.727Z" fill="#457B9D"/>
<path fill-rule="evenodd" clip-rule="evenodd" d="M184.103 489.727C184.103 479.56 191.642 471.318 200.941 471.318C210.241 471.318 217.779 479.56 217.779 489.727V511.818C217.779 521.985 210.241 530.227 200.941 530.227C191.642 530.227 184.103 521.985 184.103 511.818V489.727ZM200.941 478.682C195.362 478.682 190.838 483.627 190.838 489.727V511.818C190.838 517.919 195.362 522.864 200.941 522.864C206.521 522.864 211.044 517.919 211.044 511.818V489.727C211.044 483.627 206.521 478.682 200.941 478.682Z" fill="#1D3557"/>
<path fill-rule="evenodd" clip-rule="evenodd" d="M200.941 500.773C202.801 500.773 204.309 502.421 204.309 504.455V548.636C204.309 550.67 202.801 552.318 200.941 552.318C199.081 552.318 197.574 550.67 197.574 548.636V504.455C197.574 502.421 199.081 500.773 200.941 500.773Z" fill="#1D3557"/>
</g>
</g>
<path d="M1278.41 494.546C1278.41 486.881 1283.97 480.667 1290.82 480.667C1297.68 480.667 1303.24 486.881 1303.24 494.546V515.364C1303.24 523.029 1297.68 529.243 1290.82 529.243C1283.97 529.243 1278.41 523.029 1278.41 515.364V494.546Z" fill="#457B9D"/>
<path fill-rule="evenodd" clip-rule="evenodd" d="M1275.31 494.546C1275.31 484.964 1282.26 477.197 1290.82 477.197C1299.39 477.197 1306.34 484.964 1306.34 494.546V515.364C1306.34 524.945 1299.39 532.712 1290.82 532.712C1282.26 532.712 1275.31 524.945 1275.31 515.364V494.546ZM1290.82 484.136C1285.68 484.136 1281.51 488.797 1281.51 494.546V515.364C1281.51 521.113 1285.68 525.773 1290.82 525.773C1295.96 525.773 1300.13 521.113 1300.13 515.364V494.546C1300.13 488.797 1295.96 484.136 1290.82 484.136Z" fill="#1D3557"/>
<path fill-rule="evenodd" clip-rule="evenodd" d="M1290.82 504.955C1292.54 504.955 1293.93 506.508 1293.93 508.424V550.061C1293.93 551.977 1292.54 553.53 1290.82 553.53C1289.11 553.53 1287.72 551.977 1287.72 550.061V508.424C1287.72 506.508 1289.11 504.955 1290.82 504.955Z" fill="#1D3557"/>
<path d="M1051.16 473.129C1051.16 465.561 1056.83 459.426 1063.82 459.426C1070.81 459.426 1076.48 465.561 1076.48 473.129V514.239C1076.48 521.807 1070.81 527.942 1063.82 527.942C1056.83 527.942 1051.16 521.807 1051.16 514.239V473.129Z" fill="#457B9D"/>
<path fill-rule="evenodd" clip-rule="evenodd" d="M1048 473.129C1048 463.669 1055.08 456 1063.82 456C1072.56 456 1079.64 463.669 1079.64 473.129V514.239C1079.64 523.699 1072.56 531.368 1063.82 531.368C1055.08 531.368 1048 523.699 1048 514.239V473.129ZM1063.82 462.852C1058.58 462.852 1054.33 467.453 1054.33 473.129V514.239C1054.33 519.915 1058.58 524.516 1063.82 524.516C1069.06 524.516 1073.31 519.915 1073.31 514.239V473.129C1073.31 467.453 1069.06 462.852 1063.82 462.852Z" fill="#1D3557"/>
<path fill-rule="evenodd" clip-rule="evenodd" d="M1063.82 493.684C1065.57 493.684 1066.98 495.218 1066.98 497.11V548.497C1066.98 550.389 1065.57 551.923 1063.82 551.923C1062.07 551.923 1060.66 550.389 1060.66 548.497V497.11C1060.66 495.218 1062.07 493.684 1063.82 493.684Z" fill="#1D3557"/>
<path d="M1159.93 375.526H1127.83V431.174H1159.93V375.526Z" fill="white" stroke="#1D3557" stroke-width="12.5"/>
<path d="M1256.81 453.317H1115.87V556.832H1256.81V453.317Z" fill="white" stroke="#1D3557" stroke-width="12.5"/>
<path d="M1236.48 476.199H1190.41V555.852H1236.48V476.199Z" fill="#457B9D" stroke="#1D3557" stroke-width="12.5"/>
<path d="M1170.76 485.33H1134.17V523.616H1170.76V485.33Z" fill="white" stroke="#1D3557" stroke-width="12.5"/>
<path d="M1152.97 486.325V521.416" stroke="#1D3557" stroke-width="12.5"/>
<path d="M1169.74 503.868H1136.21" stroke="#1D3557" stroke-width="12.5"/>
<path fill-rule="evenodd" clip-rule="evenodd" d="M1101 460.232H1272.05L1185.5 372L1101 460.232Z" fill="#457B9D" stroke="#1D3557" stroke-width="12.5"/>
<rect y="551" width="1440" height="473" fill="#1D3557"/>
</g>
<path fill-rule="evenodd" clip-rule="evenodd" d="M374.66 819.031C371.285 824.184 364.317 826.36 359.096 823.892C353.875 821.424 352.378 815.246 355.753 810.093C359.128 804.94 366.096 802.764 371.317 805.232C376.538 807.7 378.035 813.878 374.66 819.031Z" fill="#CFC0A1" stroke="black" stroke-width="6.85732" stroke-linecap="round" stroke-linejoin="round"/>
<path d="M342.552 812.862C343.93 818.067 381.144 809.091 379.922 803.151C370.3 728.073 353.115 732.566 346.649 733.25C336.198 735.687 336.718 765.025 342.552 812.862Z" fill="#457B9D" stroke="black" stroke-width="8.48343"/>
<path fill-rule="evenodd" clip-rule="evenodd" d="M316.567 718.855C316.394 718.853 316.221 718.855 316.05 718.855C315.952 718.855 315.854 718.836 315.757 718.836C315.606 718.836 315.452 718.817 315.302 718.817V718.86C303.753 719.296 292.861 727.044 285.437 736.987C269.528 758.156 262.931 786.404 261.699 813.643C261.918 820.643 260.52 829.003 262.902 835.13C271.961 841.932 288.212 843.448 299.27 845.267C302.211 845.496 306.888 845.658 311.966 845.821V845.84C312.5 845.859 313.007 845.861 313.532 845.872C313.585 845.872 313.634 845.873 313.687 845.872C318.766 845.969 323.445 846.045 326.395 845.969C337.533 844.719 353.842 844.038 363.247 837.709C365.947 831.713 364.99 823.293 365.577 816.314C365.777 789.049 360.672 760.501 345.896 738.545C339.004 728.235 328.533 719.94 317.023 718.912V718.85C316.872 718.85 316.718 718.831 316.568 718.831L316.567 718.855Z" fill="#457B9D" stroke="black" stroke-width="9.32842" stroke-linecap="round" stroke-linejoin="round"/>
<path fill-rule="evenodd" clip-rule="evenodd" d="M248.826 819.031C252.201 824.184 259.169 826.36 264.39 823.892C269.611 821.424 271.108 815.246 267.733 810.093C264.358 804.94 257.39 802.764 252.169 805.232C246.948 807.7 245.451 813.878 248.826 819.031Z" fill="#CFC0A1" stroke="black" stroke-width="6.85732" stroke-linecap="round" stroke-linejoin="round"/>
<path d="M277.659 812.892C276.281 818.097 239.068 809.121 240.29 803.181C249.911 728.103 267.096 732.595 273.562 733.279C284.013 735.716 283.493 765.054 277.659 812.892Z" fill="#457B9D" stroke="black" stroke-width="8.48343"/>
<path d="M310.215 631.38H305.009C272.902 631.38 246.874 655.653 246.874 685.596V689.335C246.874 719.278 272.902 743.551 305.009 743.551H310.215C342.323 743.551 368.351 719.278 368.351 689.335V685.596C368.351 655.653 342.323 631.38 310.215 631.38Z" fill="#CFC0A1" stroke="black" stroke-width="9.72369" stroke-linecap="round" stroke-linejoin="bevel"/>
<path d="M322.658 708.049L333.713 710.517" stroke="black" stroke-width="8.40418" stroke-linecap="round" stroke-linejoin="round"/>
<path d="M315.907 680.249C315.324 683.282 312.571 685.23 309.755 684.601C306.94 683.973 305.13 681.006 305.714 677.973C306.297 674.942 309.052 672.992 311.867 673.62C314.683 674.249 316.49 677.217 315.907 680.249Z" fill="#231F20"/>
<path d="M356.879 688.438C356.296 691.47 353.543 693.419 350.727 692.79C347.912 692.162 346.102 689.195 346.686 686.162C347.269 683.13 350.024 681.18 352.839 681.808C355.656 682.437 357.463 685.406 356.879 688.438Z" fill="#231F20"/>
<path fill-rule="evenodd" clip-rule="evenodd" d="M287.36 599.916C290.448 600.114 290.935 610.23 294.485 609.452C298.273 608.623 299.888 598.472 303.76 598.012C307.632 597.552 309.026 610.269 312.948 610.304C316.869 610.339 318.166 597.617 322.015 598.069C325.864 598.521 320.658 609.385 324.352 610.399C328.045 611.414 331.827 600.909 335.453 602.28C339.08 603.652 336.984 616.828 340.345 618.765C343.705 620.702 350.166 609.195 353.394 611.353C356.622 613.511 349.216 624.731 352.183 627.29C355.151 629.85 363.985 621.913 366.507 624.88C369.027 627.843 357.953 636.262 360.019 639.495C362.085 642.728 373.513 635.412 375.249 638.891C376.985 642.37 365.404 645.414 366.791 649.086C368.178 652.758 380.102 650.295 380.949 654.073C381.797 657.85 372.894 662.75 373.322 666.678C373.751 670.607 383.836 670.329 383.998 674.201C384.145 677.682 373.575 676.409 371.063 678.94L370.059 679.15C366.944 678.341 361.124 678.982 360.275 676.862C359.15 674.055 368.849 671.585 367.432 668.93C366.014 666.274 356.376 672.033 354.68 669.57C352.985 667.107 362.34 660.53 360.263 658.278C358.185 656.026 350.711 662.217 348.257 660.28C345.803 658.344 352.057 649.639 349.382 648.014C346.708 646.389 341.227 655.262 338.44 653.808C335.653 652.354 337.533 642.204 334.519 641.188C331.505 640.171 328.272 648.302 325.199 647.561C322.126 646.819 326.55 638.415 323.342 638.108C320.134 637.8 318.947 647.638 315.675 647.651C312.403 647.67 311.388 637.841 308.152 638.234C304.917 638.627 303.411 646.43 300.243 647.107C297.075 647.782 296.93 638.904 293.84 639.938C290.749 640.972 293.973 650.193 290.968 651.467C287.966 652.747 282.017 645.265 279.117 646.778C276.217 648.291 281.921 654.819 279.22 656.616C276.519 658.412 269.84 655.144 267.444 657.226C265.048 659.308 272.014 662.354 269.867 664.705C267.72 667.056 259.415 662.742 257.68 665.318C255.944 667.896 265.007 672.624 263.529 675.345C262.051 678.066 251.68 676.574 250.502 679.39C249.325 682.207 259.208 685.588 258.348 688.523C257.488 691.457 248.476 687.984 248.109 691.023C247.741 694.063 256.748 694.024 256.68 697.037C256.628 699.307 250.744 700.926 248.007 702.839C244.38 702.054 237.191 704.752 236.112 701.756C234.791 698.086 245.682 696.293 244.649 692.552C243.615 688.812 231.544 687.541 231.016 683.71C230.489 679.879 242.911 677.614 242.952 673.694C242.992 669.774 232.186 669.722 232.584 665.771C232.982 661.82 243.767 666.487 244.757 662.681C245.747 658.876 233.924 654.314 235.296 650.667C236.669 647.02 249.083 649.112 250.817 645.593C252.551 642.075 241.64 635.785 243.684 632.459C245.729 629.132 255.701 634.864 258.242 631.838C260.783 628.812 252.413 624.698 255.256 622.026C258.099 619.355 266.138 623.712 269.351 621.417C272.564 619.122 265.667 610.572 269.122 608.649C272.577 606.725 279.813 616.525 283.397 614.916C286.98 613.305 283.013 601.313 286.703 600.017C286.934 599.94 287.154 599.904 287.361 599.923L287.36 599.916Z" fill="black"/>
<defs>
<clipPath id="clip0_0_1">
<rect width="1440" height="1024" fill="white"/>
</clipPath>
<clipPath id="clip1_0_1">
<rect width="229" height="243" fill="white" transform="translate(174 313)"/>
</clipPath>
</defs>
</svg>
